<?xml version="1.0" encoding="utf-8"?>
<!-- Generator: Adobe Illustrator 24.3.0, SVG Export Plug-In . SVG Version: 6.00 Build 0)  -->
<svg version="1.1" id="Warstwa_1" xmlns="http://www.w3.org/2000/svg" xmlns:xlink="http://www.w3.org/1999/xlink" x="0px" y="0px"
	 viewBox="0 0 811 736" style="enable-background:new 0 0 811 736;" xml:space="preserve">
<style type="text/css">
	.st0{fill:#FFFFFF;}
	.st1{fill:#57595C;}
	.st2{fill:#7BB447;}
	.st3{fill:#7AB446;}
	.st4{fill:#595B5D;}
	.st5{fill:#5B5C5F;}
	.st6{fill:#5A5C5F;}
	.st7{fill:#595B5E;}
	.st8{fill:#585A5D;}
	.st9{fill:#7CB549;}
	.st10{fill:#5B5D60;}
	.st11{fill:#55575A;}
	.st12{fill:#5D5F61;}
	.st13{fill:#F7F8F8;}
	.st14{fill:#FAFAFB;}
	.st15{fill:#F5F5F5;}
	.st16{fill:#F8F8F8;}
	.st17{fill:#F6F6F6;}
	.st18{fill:#2F3535;}
	.st19{font-family:'SegoeUI-Bold';}
	.st20{font-size:35.7325px;}
	.st21{font-size:46.3815px;}
	.st22{letter-spacing:-9;}
	.st23{font-family:'SegoeUI';}
	.st24{font-size:32.8833px;}
	.st25{font-size:42px;}
	.st26{font-size:21.4736px;}
	.st27{font-size:24.2435px;}
	.st28{letter-spacing:-12;}
	.st29{fill:none;stroke:#000000;stroke-width:2;stroke-linecap:round;stroke-miterlimit:10;}
	.st30{fill:none;stroke:#000000;stroke-width:2;stroke-linecap:round;stroke-linejoin:round;stroke-miterlimit:10;}
	.st31{font-size:52.7964px;}
	.st32{fill:#EBEBEE;}
	.st33{fill:#4AA42F;}
	.st34{letter-spacing:-6;}
	.st35{fill:#EDF6E7;}
	.st36{font-size:13.889px;}
	.st37{fill:none;stroke:#2F3535;stroke-miterlimit:10;}
	.st38{fill:#4AA42F;stroke:#FFFFFF;stroke-miterlimit:10;}
</style>
<rect class="st0" width="811" height="736"/>
<path class="st1" d="M232.4,65.1c-0.2-0.2-0.5-0.5-0.7-0.6c-1.9-1-2.6-2.6-2.6-4.6c0-0.8,0.3-1.3,1.2-1.3c0.9,0,1.6,0,1.8,1.2
	c0.3,1.9,0.9,2.4,2.6,2.5c1.8,0.1,2.6-0.5,2.8-2.3c0.2-1,0.1-2,0.2-2.9c-1.2,0.3-2.3,0.9-3.4,0.9c-2.8,0.1-4.8-1.4-5.1-4.1
	c-0.3-3.2-0.3-6.5,0.1-9.7c0.4-3.8,4.9-5.3,7.8-3.3c0.7-0.3,1.3-0.7,1.9-0.8c1.3-0.2,1.8,0.3,1.8,1.7c-0.1,5.6-0.1,11.3,0,16.9
	c0,3-1,5.2-3.9,6.4C235.4,65.1,233.9,65.1,232.4,65.1z M232.2,49.1c0,1,0,2.1,0,3.1c0,0.1,0,0.2,0,0.3c0.1,1.7,0.8,2.5,2.3,2.5
	c1.9,0.1,3-0.7,3.1-2.4c0.1-2.3,0.1-4.7,0-7.1c-0.1-1.7-1.2-2.6-3-2.6c-1.5,0-2.4,0.9-2.4,2.7C232.1,46.9,232.2,48,232.2,49.1z"/>
<path class="st2" d="M27.2,42.1c0.2-0.2,0.4-0.4,0.5-0.7c0.9-2.4,0.9-2.3,3.5-2.1c7.3,0.7,14.6,0.7,21.9-0.1c3-0.3,3.1-0.3,3.9,2.6
	c0.1,0.5,0.2,1,0.3,1.7c-10.1,0-20.1,0-30,0C27.2,43.1,27.2,42.6,27.2,42.1z"/>
<path class="st3" d="M27.2,48c9.8,0,19.5,0,29.3-0.1c0.2,0,0.4,0.1,0.9,0.2c-0.4,1.4-0.8,2.6-1.3,3.9c-0.1,0.2-0.7,0.4-1.1,0.4
	c-8.2-1.1-16.4-0.9-24.7,0.1c-1.4,0.2-2.1-0.2-2.4-1.5c-0.1-0.5-0.4-0.9-0.7-1.4C27.2,49,27.2,48.5,27.2,48z"/>
<path class="st4" d="M77.4,48.7c-1.3,0-2.3,0-3.3,0c-1.2,0-1.3-0.8-1.3-1.7c0-0.9,0-1.7,1.3-1.7c1.8,0,3.7,0,5.5,0
	c0.8,0,1.3,0.4,1.3,1.3c0,1.8,0,3.6-0.2,5.4c-0.5,4-3.2,6.1-7.5,5.9c-3.8-0.1-6.6-2.8-6.8-6.6c-0.1-3.9-0.1-7.9,0-11.8
	c0.1-3.8,2.7-6.2,6.5-6.5c4-0.2,6.5,1.7,7.4,5.3c0.3,1.2-0.1,1.7-1.3,1.9c-1,0.2-1.8,0.3-2.1-1c-0.5-2.2-1.8-3-4-2.8
	c-1.7,0.1-3,1.2-3.1,3c-0.1,3.9-0.2,7.7-0.1,11.6c0.1,2.4,1.6,3.7,4.1,3.7c2,0,3.4-1.5,3.6-3.8C77.4,50.3,77.4,49.6,77.4,48.7z"/>
<path class="st5" d="M145.6,33.5c2.8,0,5.4-0.2,8,0.1c2.9,0.3,4.6,2.2,5,5c0.2,1.9,0.3,3.8,0,5.7c-0.5,2.9-2.6,4.6-5.5,4.9
	c-1.3,0.1-2.5,0-4,0c0,2.5,0,4.8,0,7.1c0,1.3-0.7,1.4-1.7,1.4c-1,0-1.8-0.1-1.8-1.4C145.7,48.8,145.6,41.2,145.6,33.5z M149.2,46
	c2.1-0.1,4.6,0.7,5.8-1.7c1-2,1.1-4.4-0.2-6.3c-1.4-2-3.6-1.3-5.6-1.4C149.2,39.8,149.2,42.9,149.2,46z"/>
<path class="st6" d="M191.6,46.5c1.4-1.6,2.7-3.2,4.1-4.8c1.3-1.5,2-1.7,4.3-1c-0.3,0.5-0.5,0.9-0.8,1.3c-1.1,1.4-2.3,2.8-3.5,4.2
	c-0.6,0.7-0.6,1.2-0.1,2c1.6,2.5,3.1,5.1,4.6,7.7c0.3,0.5,0.5,1,0.7,1.5c-2.2,0.7-2.8,0.5-3.8-1.2c-1.3-2.3-2.7-4.5-4.1-6.9
	c-1.1,0.8-1.8,1.6-1.7,3c0.1,1.2,0,2.4,0,3.7c0.1,1.2-0.3,1.7-1.6,1.7c-1.2,0-1.7-0.5-1.7-1.7c0-6.2,0-12.4,0-18.7
	c0-0.9,0-1.8,0-2.6c0-1.2,0.6-1.5,1.7-1.5c1,0,1.5,0.4,1.5,1.5c0,3.6,0,7.3,0,10.9c0,0.2,0,0.5,0,0.7
	C191.4,46.4,191.5,46.5,191.6,46.5z"/>
<path class="st7" d="M115.2,51c-0.3,2.6,0.6,4,2.4,4.1c1.5,0.1,2.7-0.7,2.8-2.2c0.1-1.5,0.9-1.6,2.1-1.6c1.4,0.1,1.2,1.1,1.1,1.9
	c-0.2,2.7-2.5,4.6-5.5,4.8c-3,0.1-5.8-1.7-6.1-4.5c-0.3-3-0.2-6,0-8.9c0.2-2.4,1.9-3.8,4.2-4.3c2.4-0.5,4.7-0.2,6.3,1.8
	c1.6,2,1.1,4.3,0.8,6.5c-0.1,0.5-1.1,1-1.8,1.2C119.5,50.2,117.3,50.6,115.2,51z M115.1,48c1.7-0.3,3.2-0.6,4.8-0.9
	c0.3-0.1,0.7-0.4,0.7-0.6c-0.2-1-0.1-2.3-0.7-2.8c-0.7-0.6-2-0.6-3-0.4c-1.1,0.2-1.6,1.2-1.7,2.3C115,46.3,115.1,47.1,115.1,48z"/>
<path class="st7" d="M169.8,56.8c-2.8,1.7-5.1,1.5-7-0.4c-2.7-2.7-1.6-7.1,2.1-8.2c1.2-0.4,2.4-0.7,3.6-0.9c1.5-0.2,1.6-1,1.4-2.2
	c-0.2-1.3-1-2.1-2.4-2.1c-1.2,0-2.2,0.3-2.4,1.8c-0.2,1.4-1.4,1.1-2.2,1c-0.4-0.1-0.9-0.9-0.9-1.5c0-2.9,3.4-4.9,6.7-4.1
	c2.8,0.6,4.4,2.7,4.4,5.8c0,3.2,0.1,6.5,0,9.7c0,0.7-0.3,1.7-0.8,1.9C171.4,58,170.3,58.1,169.8,56.8z M170.1,50
	c-1.7,0.4-2.9,0.6-4,1c-1,0.3-1.6,1-1.5,2.1c0.1,1.1,0.8,1.8,1.9,2c1.3,0.2,2.4-0.3,2.9-1.5C169.7,52.5,169.8,51.3,170.1,50z"/>
<path class="st8" d="M95.4,49.1c0-1.2-0.1-2.5,0-3.7c0.1-2.4,1.6-4.3,3.9-5c2.5-0.8,5.4-0.1,6.8,1.7c1.6,2,1.1,4.4,0.8,6.6
	c-0.1,0.4-1,0.9-1.6,1c-1.7,0.4-3.5,0.8-5.2,0.9c-1.4,0.1-1.6,0.9-1.4,2c0.2,1.5,1.2,2.4,2.7,2.4c1.5,0,2.5-0.7,2.6-2.2
	c0.1-1.5,1-1.6,2.1-1.5c1.3,0.1,1.1,1,1.1,1.8c-0.2,2.8-2.6,4.8-5.9,4.8c-3.1,0-5.6-2.2-5.8-5C95.3,51.7,95.4,50.4,95.4,49.1z
	 M98.5,48c1.4-0.3,2.5-0.5,3.6-0.7c0.3-0.1,0.7-0.1,1-0.2c0.3-0.1,0.8-0.3,0.8-0.6c0.5-1.6-0.3-3.1-1.8-3.4
	c-1.9-0.4-3.4,0.6-3.6,2.3C98.5,46.2,98.5,47,98.5,48z"/>
<path class="st8" d="M132.1,41.2c1.8-1.3,3.7-1.4,5.6-0.5c1.9,0.9,2.5,2.7,2.6,4.6c0.1,3.7,0,7.3,0,11c0,1.1-0.5,1.4-1.5,1.4
	c-1.1,0-1.7-0.2-1.7-1.4c0-3.5,0-7.1,0-10.6c0-1.9-1-2.8-2.7-2.7c-1.6,0.1-2.5,1.2-2.5,3c0,3.3,0,6.6,0,9.8c0,1.7-0.4,1.9-2,1.9
	c-0.9,0-1.2-0.5-1.2-1.3c0-4.9,0-9.9,0-14.8c0-0.4,0.4-1.2,0.7-1.2c0.9,0,1.8,0.2,2.6,0.3C132.1,40.9,132.1,41,132.1,41.2z"/>
<path class="st8" d="M215.3,41.2c4.1-2.6,8.1-0.5,8.3,4.2c0.1,3.7,0,7.3,0,11c0,1.2-0.6,1.3-1.6,1.3c-1,0-1.6-0.3-1.6-1.4
	c0-3.4,0-6.8,0-10.1c0-2.2-0.8-3.2-2.5-3.2c-1.8,0-2.8,1.2-2.8,3.3c0,3.1,0,6.2,0,9.3c0,2-0.2,2.1-1.7,2.2c-1.9,0.1-1.6-1.2-1.6-2.3
	c0-4.4,0-8.7,0-13.1c0-0.7,0.3-1.8,0.7-1.9C213.6,40.1,214.8,40,215.3,41.2z"/>
<path class="st9" d="M31.8,35c4.5-5.7,16.2-5.8,20.9-0.1C45.7,35.8,38.8,35.9,31.8,35z"/>
<path class="st9" d="M31.8,56.5c7.1-0.6,13.9-0.9,20.8,0C47.7,62.2,37.2,62.2,31.8,56.5z"/>
<path class="st10" d="M181.2,40.9c1.3-0.3,2.4-0.7,3.5-0.8c1-0.2,1.3,0.5,1.2,1.4c0,0.8-0.1,1.4-1.1,1.6c-3.2,0.4-3.6,0.9-3.6,4
	c0,3.1-0.1,6.2,0,9.3c0,1.2-0.5,1.5-1.6,1.5c-1.1,0-1.6-0.4-1.6-1.5c0-4.6,0-9.2,0.1-13.8c0-0.7,0.3-1.8,0.7-1.9
	C179.6,40.2,180.9,39.9,181.2,40.9z"/>
<path class="st10" d="M88.7,41c1.2-0.3,2.3-0.7,3.4-0.9c1-0.2,1.4,0.4,1.4,1.4c0,0.9-0.1,1.5-1.3,1.6c-2.9,0.2-3.5,1-3.5,3.8
	c0,3.1-0.1,6.3,0,9.4c0,1.2-0.5,1.5-1.6,1.5c-1.1,0-1.6-0.3-1.6-1.5c0-4.7,0-9.4,0.1-14.1c0-0.6,0.4-1.6,0.7-1.7
	C87.1,40.3,88.2,39.9,88.7,41z"/>
<path class="st11" d="M207,49.2c0,2.3,0,4.7,0,7c0,1.1-0.4,1.6-1.5,1.6c-1.1,0-1.6-0.4-1.6-1.5c0-4.8,0-9.6,0-14.4
	c0-1.1,0.4-1.6,1.5-1.6c1.1,0,1.6,0.4,1.6,1.5C207,44.3,207,46.7,207,49.2z"/>
<path class="st12" d="M207.2,35.2c0.2,1.3-0.1,2-1.7,2c-1.5,0-1.9-0.5-1.8-1.9c0-1.2,0.2-2.1,1.7-2
	C206.8,33.3,207.4,33.8,207.2,35.2z"/>
<path class="st13" d="M232.2,49.1c0-1.1,0-2.3,0-3.4c0.1-1.8,0.9-2.7,2.4-2.7c1.7,0,2.9,0.9,3,2.6c0.1,2.3,0.1,4.7,0,7.1
	c-0.1,1.7-1.2,2.4-3.1,2.4c-1.5-0.1-2.2-0.8-2.3-2.5c0-0.1,0-0.2,0-0.3C232.2,51.2,232.2,50.2,232.2,49.1z"/>
<path class="st14" d="M149.2,46c0-3.1,0-6.2,0-9.4c2,0.1,4.2-0.6,5.6,1.4c1.3,2,1.2,4.3,0.2,6.3C153.7,46.7,151.3,45.9,149.2,46z"/>
<path class="st15" d="M115.1,48c0-0.9,0-1.7,0-2.4c0.1-1.1,0.6-2.1,1.7-2.3c1-0.1,2.3-0.1,3,0.4c0.6,0.5,0.6,1.8,0.7,2.8
	c0,0.2-0.4,0.5-0.7,0.6C118.3,47.4,116.8,47.7,115.1,48z"/>
<path class="st16" d="M170.1,50c-0.3,1.4-0.3,2.5-0.7,3.5c-0.5,1.2-1.6,1.7-2.9,1.5c-1.1-0.1-1.8-0.9-1.9-2
	c-0.1-1.1,0.5-1.8,1.5-2.1C167.2,50.6,168.4,50.4,170.1,50z"/>
<path class="st17" d="M98.5,48c0-1-0.1-1.8,0-2.6c0.2-1.7,1.7-2.7,3.6-2.3c1.5,0.3,2.3,1.9,1.8,3.4c-0.1,0.3-0.5,0.5-0.8,0.6
	c-0.3,0.1-0.7,0.2-1,0.2C101,47.5,99.9,47.7,98.5,48z"/>
<text transform="matrix(1 0 0 1 27.2407 122.2554)"><tspan x="0" y="0" class="st18 st19 st20">Your balance: </tspan><tspan x="237.6" y="0" class="st18 st19 st21">$100</tspan><tspan x="344.3" y="0" class="st18 st19 st20 st22">​</tspan></text>
<text transform="matrix(1 0 0 1 375.0394 279.1842)" class="st18 st23 st24">volume:</text>
<g>
	<text transform="matrix(1 0 0 1 665.5815 279.1927)" class="st18 st19 st25">67</text>
	<text transform="matrix(1 0 0 1 719.7612 269.4932)" class="st18 st23 st26">kWh</text>
</g>
<text transform="matrix(1 0 0 1 375.0396 345.7315)" class="st18 st23 st24">averge:</text>
<g>
	<text transform="matrix(1 0 0 1 602.3685 345.7393)" class="st18 st19 st25">163</text>
	<text transform="matrix(1 0 0 1 682.2235 336.0407)" class="st18 st23 st26">kWh/km</text>
</g>
<g>
	<path class="st18" d="M762.5,196.8H49.9c-12.5,0-22.6-10.1-22.6-22.6v0c0-12.5,10.1-22.6,22.6-22.6h712.6
		c12.5,0,22.6,10.1,22.6,22.6v0C785.1,186.7,775,196.8,762.5,196.8z"/>
	<text transform="matrix(1 0 0 1 368.0303 181.1484)" class="st0 st23 st27">Battery</text>
</g>
<g>
	<text transform="matrix(1 0 0 1 648.2971 123.1245)"><tspan x="0" y="0" class="st18 st19 st21">82km</tspan><tspan x="121.8" y="0" class="st18 st19 st21 st28">​</tspan></text>
</g>
<g>
	<polyline class="st29" points="455.2,94.5 455.2,119.6 452.2,119.6 452.2,125.1 485.4,125.1 485.4,120.1 482.8,120.1 482.8,94.5 	
		"/>
	<path class="st29" d="M482.8,91.4h-28.2v-16c0-0.9,0.8-1.7,1.7-1.7h24.8c0.9,0,1.7,0.8,1.7,1.7V91.4z"/>
	<path class="st29" d="M482.8,100.1h5.2c1.4,0,2.5,1.1,2.5,2.5v16.3c0,2,1.6,3.7,3.7,3.7l0,0c2.1,0,3.8-1.7,3.8-3.8V94.5"/>
	<polyline class="st30" points="472.3,99.5 465.5,106.6 472.3,106.6 465.5,115 	"/>
	<line class="st30" x1="461.3" y1="81" x2="476.5" y2="81"/>
	<line class="st30" x1="461.1" y1="84.9" x2="476.2" y2="84.9"/>
	<path class="st30" d="M500.6,94.1H495c-0.8,0-1.4-0.6-1.4-1.4v-7.1h8.5v7C502.1,93.4,501.4,94.1,500.6,94.1z"/>
	<line class="st30" x1="495.7" y1="81.4" x2="495.7" y2="85.6"/>
	<line class="st30" x1="500.1" y1="81.4" x2="500.1" y2="85.6"/>
</g>
<g>
	<text transform="matrix(1 0 0 1 78.9738 319.2348)" class="st18 st19 st31">60%</text>
	<path class="st32" d="M70.7,301.2c0-33.7,27.3-61.1,61.1-61.1v-10.5c-39.5,0-71.6,32-71.6,71.6c0,21.3,9.3,40.4,24.1,53.5l7.4-7.4
		C78.9,336.1,70.7,319.6,70.7,301.2z"/>
	<path class="st33" d="M203.4,301.2c0-39.5-32-71.6-71.6-71.6v10.5c33.7,0,61.1,27.3,61.1,61.1c0,33.7-27.3,61.1-61.1,61.1
		c-15.3,0-29.3-5.7-40.1-15l-7.4,7.4c12.6,11.2,29.3,18.1,47.5,18.1C171.3,372.8,203.4,340.8,203.4,301.2z"/>
</g>
<g>
	<path class="st18" d="M762.5,451.9H49.9c-12.5,0-22.6-10.1-22.6-22.6v0c0-12.5,10.1-22.6,22.6-22.6h712.6
		c12.5,0,22.6,10.1,22.6,22.6v0C785.1,441.8,775,451.9,762.5,451.9z"/>
	<g>
		<text transform="matrix(1 0 0 1 313.0508 436.7371)"><tspan x="0" y="0" class="st0 st23 st27">Kilometers driven</tspan><tspan x="186.4" y="0" class="st0 st23 st27 st34">​</tspan></text>
	</g>
</g>
<rect x="56.8" y="605.4" class="st35" width="710.6" height="50.5"/>
<rect x="56" y="497.2" class="st35" width="710.6" height="50.5"/>
<g>
	<g>
		<text transform="matrix(1 0 0 1 27.2417 505.8408)" class="st18 st23 st36">20</text>
		<text transform="matrix(1 0 0 1 27.2415 557.0521)" class="st18 st23 st36">13</text>
		<text transform="matrix(1 0 0 1 34.729 608.2634)" class="st18 st23 st36">7</text>
		<text transform="matrix(1 0 0 1 34.7292 659.4748)" class="st18 st23 st36">0</text>
	</g>
	<g>
		<text transform="matrix(1 0 0 1 95.4625 681.4225)" class="st18 st23 st36">9/17</text>
		<text transform="matrix(1 0 0 1 168.1165 681.4221)" class="st18 st23 st36">9/16</text>
		<text transform="matrix(1 0 0 1 240.7705 681.4218)" class="st18 st23 st36">9/15</text>
		<text transform="matrix(1 0 0 1 313.4245 681.4214)" class="st18 st23 st36">9/14</text>
		<text transform="matrix(1 0 0 1 386.0785 681.421)" class="st18 st23 st36">9/13</text>
		<text transform="matrix(1 0 0 1 458.7325 681.4207)" class="st18 st23 st36">9/12</text>
		<text transform="matrix(1 0 0 1 531.3865 681.4203)" class="st18 st23 st36">9/11</text>
		<text transform="matrix(1 0 0 1 604.0405 681.4199)" class="st18 st23 st36">9/10</text>
		<text transform="matrix(1 0 0 1 676.6945 681.4196)" class="st18 st23 st36">9/9</text>
		<text transform="matrix(1 0 0 1 749.3485 681.4192)" class="st18 st23 st36">9/8</text>
	</g>
	<polyline class="st37" points="56,499.2 56,656.8 768.3,656.8 	"/>
	<path class="st38" d="M127.8,651.6h-17c0,0,37.9-60.6,68.9-67.3c13.1-2.8,44.6,2.8,76.2,27.3c18.3,14.2,47.8,28.5,64.2,18.6
		c11.9-7.3,33.2-115.8,63.1-114.4c32.9,1.6,53.9,59.6,87.3,61.8c18.2,1.2,41.3-28.3,67.5-24.1c21.8,3.5,45.7,29.2,72.7,40.2
		s55.6,15,71.5,20.6c15.9,5.7,76.7,33.8,76.7,33.8L127.8,651.6"/>
	<circle class="st38" cx="115.7" cy="647.8" r="6.6"/>
	<circle class="st38" cx="179.7" cy="584.3" r="6.6"/>
	<circle class="st38" cx="255.9" cy="611.6" r="6.6"/>
	<circle class="st38" cx="383.2" cy="515.8" r="6.6"/>
	<circle class="st38" cx="470.5" cy="577.7" r="6.6"/>
	<circle class="st38" cx="538" cy="553.6" r="6.6"/>
	<circle class="st38" cx="610.7" cy="593.7" r="6.6"/>
	<circle class="st38" cx="682.2" cy="614.4" r="6.6"/>
	<circle class="st38" cx="752.3" cy="646.8" r="6.6"/>
	<circle class="st38" cx="320.1" cy="630.2" r="6.6"/>
</g>
</svg>
