<svg id="Warstwa_1" data-name="Warstwa 1" xmlns="http://www.w3.org/2000/svg" xmlns:xlink="http://www.w3.org/1999/xlink" viewBox="0 0 811 348.01"><defs><radialGradient id="radial-gradient" cx="963.05" cy="28.38" r="19.48" gradientTransform="translate(-883.82)" gradientUnits="userSpaceOnUse"><stop offset="0" stop-color="#e3e3e3"/><stop offset="0.01" stop-color="#e2e2e2"/><stop offset="0.45" stop-color="#bababa"/><stop offset="0.79" stop-color="#a2a2a2"/><stop offset="1" stop-color="#999"/></radialGradient><radialGradient id="radial-gradient-2" cx="963.05" cy="28.38" r="19.48" xlink:href="#radial-gradient"/><linearGradient id="linear-gradient" x1="525.69" y1="19.24" x2="495.18" y2="30.8" gradientTransform="matrix(-1, 0, 0, 1, 613.62, 0)" gradientUnits="userSpaceOnUse"><stop offset="0.49" stop-color="#ad9964"/><stop offset="0.55" stop-color="#b09d6a"/><stop offset="0.62" stop-color="#b9a77a"/><stop offset="0.7" stop-color="#c7b994"/><stop offset="0.77" stop-color="#d6cbb0"/><stop offset="0.89" stop-color="#ddd3bc"/><stop offset="0.93" stop-color="#d7ccb1"/><stop offset="0.99" stop-color="#c7b992"/><stop offset="1" stop-color="#c5b68e"/></linearGradient><linearGradient id="linear-gradient-2" x1="527.37" y1="23.68" x2="496.85" y2="35.23" xlink:href="#linear-gradient"/><linearGradient id="linear-gradient-3" x1="529.18" y1="28.47" x2="498.67" y2="40.02" xlink:href="#linear-gradient"/></defs><rect width="811" height="348.01" style="fill:#fff"/><rect x="168.02" y="20.33" width="609.78" height="83.42" style="fill:#b19863"/><path d="M323.24,331.15h-9.55v-16h3.61v13.1h5.94Z" style="fill:#8c9091"/><path d="M327,317.89a2,2,0,0,1-1.46-.53,1.68,1.68,0,0,1-.58-1.3,1.64,1.64,0,0,1,.58-1.3,2.14,2.14,0,0,1,1.46-.5,2.16,2.16,0,0,1,1.47.5,1.65,1.65,0,0,1,.56,1.3,1.68,1.68,0,0,1-.56,1.32A2.12,2.12,0,0,1,327,317.89Zm1.74,13.26h-3.53V319.7h3.53Z" style="fill:#8c9091"/><path d="M342.93,331.15h-3.52v-6.36c0-1.77-.63-2.66-1.9-2.66a1.92,1.92,0,0,0-1.51.7,2.72,2.72,0,0,0-.59,1.79v6.53h-3.53V319.7h3.53v1.82h0a4,4,0,0,1,3.67-2.1c2.54,0,3.8,1.58,3.8,4.72Z" style="fill:#8c9091"/><path d="M356.18,326.43h-7.47c.12,1.67,1.16,2.5,3.14,2.5a6.12,6.12,0,0,0,3.32-.9v2.55a8.68,8.68,0,0,1-4.13.85,5.33,5.33,0,0,1-5.83-5.82,6.14,6.14,0,0,1,1.65-4.52,5.53,5.53,0,0,1,4.07-1.67,5,5,0,0,1,3.88,1.49,5.75,5.75,0,0,1,1.37,4Zm-3.28-2.16c0-1.64-.66-2.46-2-2.46a1.88,1.88,0,0,0-1.47.7,3.17,3.17,0,0,0-.75,1.76Z" style="fill:#8c9091"/><path d="M368,331.15h-3.34v-1.64h0a3.74,3.74,0,0,1-3.41,1.92,3.57,3.57,0,0,1-2.63-.94,3.41,3.41,0,0,1-1-2.52c0-2.22,1.31-3.51,3.94-3.85l3.11-.41c0-1.26-.68-1.88-2-1.88a6.87,6.87,0,0,0-3.89,1.22v-2.66a8.23,8.23,0,0,1,2-.67,10.42,10.42,0,0,1,2.34-.3q4.89,0,4.89,4.89Zm-3.32-4.65v-.77l-2.08.27c-1.14.15-1.72.67-1.72,1.55a1.26,1.26,0,0,0,.42,1,1.6,1.6,0,0,0,1.13.39,2.1,2.1,0,0,0,1.63-.69A2.52,2.52,0,0,0,364.64,326.5Z" style="fill:#8c9091"/><path d="M378.39,322.89a3.12,3.12,0,0,0-1.49-.35,2.15,2.15,0,0,0-1.8.85,3.7,3.7,0,0,0-.65,2.3v5.46h-3.53V319.7h3.53v2.13h.05a3,3,0,0,1,3-2.33,2.27,2.27,0,0,1,.88.14Z" style="fill:#8c9091"/><path d="M397.87,331.15h-3.53v-1.57h0a4,4,0,0,1-3.54,1.85,4.36,4.36,0,0,1-3.46-1.51,6.28,6.28,0,0,1-1.31-4.23,6.82,6.82,0,0,1,1.45-4.55,4.71,4.71,0,0,1,3.78-1.72,3.21,3.21,0,0,1,3.08,1.59h0V314.2h3.53Zm-3.47-5.57v-.86a2.66,2.66,0,0,0-.65-1.85,2.29,2.29,0,0,0-3.52.18,4.29,4.29,0,0,0-.66,2.53,3.74,3.74,0,0,0,.64,2.33,2.26,2.26,0,0,0,3.52,0A3.62,3.62,0,0,0,394.4,325.58Z" style="fill:#8c9091"/><path d="M402.79,317.89a2,2,0,0,1-1.46-.53,1.71,1.71,0,0,1-.57-1.3,1.66,1.66,0,0,1,.57-1.3,2.4,2.4,0,0,1,2.93,0,1.66,1.66,0,0,1,.57,1.3,1.69,1.69,0,0,1-.57,1.32A2.12,2.12,0,0,1,402.79,317.89Zm1.75,13.26H401V319.7h3.54Z" style="fill:#8c9091"/><path d="M425.85,331.15h-3.52v-6.53c0-1.66-.62-2.49-1.84-2.49a1.69,1.69,0,0,0-1.42.75,3.11,3.11,0,0,0-.54,1.87v6.4H415v-6.59q0-2.43-1.8-2.43a1.74,1.74,0,0,0-1.45.72,3.13,3.13,0,0,0-.54,1.94v6.36h-3.53V319.7h3.53v1.79h.05a4.13,4.13,0,0,1,1.53-1.49,4.3,4.3,0,0,1,2.17-.58,3.31,3.31,0,0,1,3.32,2.14,4.24,4.24,0,0,1,3.84-2.14q3.74,0,3.74,4.61Z" style="fill:#8c9091"/><path d="M439.09,326.43h-7.47c.12,1.67,1.17,2.5,3.14,2.5a6.09,6.09,0,0,0,3.32-.9v2.55a8.67,8.67,0,0,1-4.12.85,5.33,5.33,0,0,1-5.84-5.82,6.11,6.11,0,0,1,1.66-4.52,5.51,5.51,0,0,1,4.07-1.67,5,5,0,0,1,3.87,1.49,5.75,5.75,0,0,1,1.37,4Zm-3.28-2.16c0-1.64-.66-2.46-2-2.46a1.91,1.91,0,0,0-1.47.7,3.24,3.24,0,0,0-.75,1.76Z" style="fill:#8c9091"/><path d="M452.41,331.15h-3.52v-6.36c0-1.77-.64-2.66-1.91-2.66a1.89,1.89,0,0,0-1.5.7,2.67,2.67,0,0,0-.6,1.79v6.53h-3.53V319.7h3.53v1.82h.05a4,4,0,0,1,3.68-2.1c2.53,0,3.8,1.58,3.8,4.72Z" style="fill:#8c9091"/><path d="M454.61,330.85V328a7.59,7.59,0,0,0,1.74.78A5.87,5.87,0,0,0,458,329a3.51,3.51,0,0,0,1.48-.26A.83.83,0,0,0,460,328a.73.73,0,0,0-.24-.56,2.41,2.41,0,0,0-.63-.39,7.63,7.63,0,0,0-.85-.3,8.31,8.31,0,0,1-.88-.31,7.51,7.51,0,0,1-1.2-.55,3.64,3.64,0,0,1-.88-.69,2.71,2.71,0,0,1-.53-.9,3.68,3.68,0,0,1-.19-1.22,3.11,3.11,0,0,1,.42-1.65,3.39,3.39,0,0,1,1.12-1.14,5.32,5.32,0,0,1,1.6-.65,8.18,8.18,0,0,1,1.87-.21,10.31,10.31,0,0,1,1.55.12,11.77,11.77,0,0,1,1.54.34v2.73a5.67,5.67,0,0,0-1.44-.59,6,6,0,0,0-1.5-.19,3.52,3.52,0,0,0-.66.06,2.14,2.14,0,0,0-.54.18,1.11,1.11,0,0,0-.37.3.68.68,0,0,0-.13.42.8.8,0,0,0,.2.54,1.75,1.75,0,0,0,.52.38,4.44,4.44,0,0,0,.73.29l.78.27a10.29,10.29,0,0,1,1.28.53,4.25,4.25,0,0,1,1,.68,2.72,2.72,0,0,1,.62.92,3.17,3.17,0,0,1,.22,1.25,3.31,3.31,0,0,1-.44,1.74,3.66,3.66,0,0,1-1.17,1.18,5.27,5.27,0,0,1-1.69.65,9.26,9.26,0,0,1-2,.21A10.2,10.2,0,0,1,454.61,330.85Z" style="fill:#8c9091"/><path d="M467.38,317.89a2,2,0,0,1-1.46-.53,1.71,1.71,0,0,1-.57-1.3,1.66,1.66,0,0,1,.57-1.3,2.16,2.16,0,0,1,1.46-.5,2.13,2.13,0,0,1,1.47.5,1.66,1.66,0,0,1,.57,1.3,1.69,1.69,0,0,1-.57,1.32A2.09,2.09,0,0,1,467.38,317.89Zm1.75,13.26H465.6V319.7h3.53Z" style="fill:#8c9091"/><path d="M477.72,331.43a6.14,6.14,0,0,1-4.5-1.6,6.63,6.63,0,0,1,.06-8.8,6.41,6.41,0,0,1,4.6-1.61,6.08,6.08,0,0,1,4.47,1.61,5.7,5.7,0,0,1,1.62,4.24,6.09,6.09,0,0,1-1.67,4.51A6.24,6.24,0,0,1,477.72,331.43Zm.09-9.3a2.37,2.37,0,0,0-1.95.86,3.83,3.83,0,0,0-.69,2.44c0,2.2.89,3.3,2.66,3.3s2.54-1.13,2.54-3.39S479.51,322.13,477.81,322.13Z" style="fill:#8c9091"/><path d="M497.48,331.15H494v-6.36c0-1.77-.64-2.66-1.91-2.66a1.92,1.92,0,0,0-1.51.7,2.72,2.72,0,0,0-.59,1.79v6.53h-3.53V319.7H490v1.82H490a4,4,0,0,1,3.67-2.1c2.54,0,3.81,1.58,3.81,4.72Z" style="fill:#8c9091"/><path d="M502,323.25a2.07,2.07,0,0,1-1.45-.53,1.72,1.72,0,0,1-.59-1.32,1.68,1.68,0,0,1,.6-1.32,2.23,2.23,0,0,1,1.49-.51,2.13,2.13,0,0,1,1.49.52,1.7,1.7,0,0,1,.57,1.31,1.65,1.65,0,0,1-.59,1.33A2.19,2.19,0,0,1,502,323.25Zm0,8.18a2.07,2.07,0,0,1-1.45-.53,1.73,1.73,0,0,1-.59-1.32,1.65,1.65,0,0,1,.6-1.32,2.39,2.39,0,0,1,3,0,1.72,1.72,0,0,1,.57,1.32,1.66,1.66,0,0,1-.59,1.33A2.19,2.19,0,0,1,502,331.43Z" style="fill:#8c9091"/><path d="M523.83,331.15H513.69v-2.79H517v-10l-3.41.74v-2.86l6.93-1.4v13.51h3.3Z" style="fill:#8c9091"/><path d="M527,330.74v-3a6.61,6.61,0,0,0,3.5,1,3.33,3.33,0,0,0,2.19-.67,2.23,2.23,0,0,0,.78-1.8c0-1.59-1.12-2.39-3.36-2.39a20.32,20.32,0,0,0-2.65.21v-9h8.88V318h-5.86v3.21c.47,0,.91-.06,1.33-.06a5.5,5.5,0,0,1,3.87,1.29,4.54,4.54,0,0,1,1.39,3.49,5.13,5.13,0,0,1-1.66,4,6.39,6.39,0,0,1-4.52,1.54A9.71,9.71,0,0,1,527,330.74Z" style="fill:#8c9091"/><path d="M542.59,322.82v-.05c-1.83-.76-2.75-2-2.75-3.66a3.82,3.82,0,0,1,1.48-3.06,5.85,5.85,0,0,1,3.81-1.2,5.93,5.93,0,0,1,3.8,1.13,3.5,3.5,0,0,1,1.42,2.9q0,2.63-3,3.87v0a4.94,4.94,0,0,1,2.53,1.58,3.78,3.78,0,0,1,.91,2.48,4,4,0,0,1-1.58,3.35,6.94,6.94,0,0,1-4.38,1.23,6.06,6.06,0,0,1-3.93-1.2,3.87,3.87,0,0,1-1.5-3.18C539.36,325.13,540.44,323.73,542.59,322.82Zm2.36,1.35c-1.49.58-2.24,1.49-2.24,2.7a1.81,1.81,0,0,0,.68,1.44,2.55,2.55,0,0,0,1.68.57,2.52,2.52,0,0,0,1.71-.56,1.84,1.84,0,0,0,.64-1.47C547.42,325.63,546.6,324.73,545,324.17Zm2.08-5a1.67,1.67,0,0,0-.52-1.3,1.89,1.89,0,0,0-1.38-.49,2,2,0,0,0-1.39.51,1.68,1.68,0,0,0-.55,1.3c0,1,.64,1.76,1.92,2.27C546.39,320.94,547,320.18,547,319.18Z" style="fill:#8c9091"/><path d="M564.32,319.7l-3.78,5.55,3.76,5.9h-4.07l-1.66-3.08c-.13-.25-.29-.6-.48-1h0a7.21,7.21,0,0,1-.46,1l-1.67,3.12h-4l3.87-5.7-3.64-5.75h4.09l1.64,3.21a7.93,7.93,0,0,1,.45,1.08h.05a7.83,7.83,0,0,1,.48-1.1l1.67-3.19Z" style="fill:#8c9091"/><path d="M582.33,315.29v2.95a5.3,5.3,0,0,0-2.66-.69,3.49,3.49,0,0,0-2.87,1.36,5.72,5.72,0,0,0-1.13,3.63h.06a3.82,3.82,0,0,1,3.37-1.7,4,4,0,0,1,3.19,1.37,5.3,5.3,0,0,1,1.18,3.61,5.46,5.46,0,0,1-1.57,4,5.31,5.31,0,0,1-4,1.6,5,5,0,0,1-4.22-1.95,8.74,8.74,0,0,1-1.52-5.49,10.48,10.48,0,0,1,2-6.65,6.41,6.41,0,0,1,5.31-2.49A7.65,7.65,0,0,1,582.33,315.29Zm-4.43,8.17a1.94,1.94,0,0,0-1.55.68,2.65,2.65,0,0,0-.57,1.75,3.37,3.37,0,0,0,.58,2,1.89,1.89,0,0,0,3.08.09A3.09,3.09,0,0,0,580,326C580,324.32,579.31,323.46,577.9,323.46Z" style="fill:#8c9091"/><path d="M589.65,328.16v.06h6.51v2.93H585.61V328.4L590.2,324a12.45,12.45,0,0,0,1.95-2.23,3.49,3.49,0,0,0,.57-1.9c0-1.47-.8-2.21-2.38-2.21a6,6,0,0,0-4,1.64v-3.1a8.41,8.41,0,0,1,4.72-1.36,5.53,5.53,0,0,1,3.84,1.24,4.24,4.24,0,0,1,1.38,3.33c0,1.88-1.12,3.81-3.37,5.81Z" style="fill:#8c9091"/><path d="M607.88,330.74a7,7,0,0,1-3.45.69,5.81,5.81,0,0,1-4.27-1.6,5.51,5.51,0,0,1-1.64-4.12,6.1,6.1,0,0,1,1.75-4.6,6.49,6.49,0,0,1,4.68-1.69,6,6,0,0,1,2.93.54v3a4,4,0,0,0-2.47-.83A3.27,3.27,0,0,0,603,323a3.8,3.8,0,0,0,0,4.84,3.13,3.13,0,0,0,2.34.87,4.66,4.66,0,0,0,2.58-.83Z" style="fill:#8c9091"/><path d="M628.53,331.15H625v-6.53q0-2.49-1.83-2.49a1.68,1.68,0,0,0-1.42.75,3,3,0,0,0-.55,1.87v6.4h-3.53v-6.59q0-2.43-1.8-2.43a1.73,1.73,0,0,0-1.45.72,3.13,3.13,0,0,0-.54,1.94v6.36h-3.53V319.7h3.53v1.79h0a4.37,4.37,0,0,1,3.7-2.07,3.3,3.3,0,0,1,3.32,2.14,4.26,4.26,0,0,1,3.85-2.14q3.74,0,3.73,4.61Z" style="fill:#8c9091"/><path d="M54.71,156.51a13.7,13.7,0,0,1-6,1.12,10.15,10.15,0,0,1-7.61-2.84,10.42,10.42,0,0,1-2.76-7.58A11.07,11.07,0,0,1,41.45,139a10.89,10.89,0,0,1,8.08-3.14,15,15,0,0,1,5.18.78v4.56a9.15,9.15,0,0,0-4.8-1.26,6.39,6.39,0,0,0-4.78,1.86,6.9,6.9,0,0,0-1.81,5A6.76,6.76,0,0,0,45,151.73a6,6,0,0,0,4.62,1.81,9.81,9.81,0,0,0,5.06-1.35Z" style="fill:#8c9091"/><path d="M70.4,157.26H66v-2.15H66a4.87,4.87,0,0,1-4.46,2.52,4.71,4.71,0,0,1-3.44-1.24,4.46,4.46,0,0,1-1.25-3.3q0-4.36,5.17-5l4.07-.55c0-1.64-.89-2.46-2.66-2.46a9.14,9.14,0,0,0-5.1,1.6v-3.49a11.27,11.27,0,0,1,2.64-.87,13.64,13.64,0,0,1,3.06-.39q6.41,0,6.41,6.41Zm-4.35-6.09v-1l-2.72.35c-1.51.19-2.26.87-2.26,2a1.68,1.68,0,0,0,.55,1.3,2.11,2.11,0,0,0,1.49.51,2.71,2.71,0,0,0,2.12-.91A3.23,3.23,0,0,0,66.05,151.17Z" style="fill:#8c9091"/><path d="M83.85,146.44A4,4,0,0,0,81.9,146a2.82,2.82,0,0,0-2.36,1.11,4.87,4.87,0,0,0-.85,3v7.16H74.06v-15h4.63V145h.06a4,4,0,0,1,4-3,3.15,3.15,0,0,1,1.14.17Z" style="fill:#8c9091"/><path d="M95.79,146.44a4,4,0,0,0-2-.46,2.81,2.81,0,0,0-2.36,1.11,4.81,4.81,0,0,0-.85,3v7.16H86v-15h4.63V145h.06a4,4,0,0,1,4-3,3.18,3.18,0,0,1,1.14.17Z" style="fill:#8c9091"/><path d="M113.42,142.26l-6.09,16.2q-2.19,5.85-6.62,5.85a8.6,8.6,0,0,1-2.77-.38v-3.7a3.85,3.85,0,0,0,2,.55,2.52,2.52,0,0,0,2.49-1.69l.79-1.86-6.09-15h5.12l2.8,9.13a11.49,11.49,0,0,1,.41,2h.06a15,15,0,0,1,.48-2l2.83-9.16Z" style="fill:#8c9091"/><path d="M130.71,157.63a8,8,0,0,1-5.9-2.11,8.7,8.7,0,0,1,.08-11.52,8.45,8.45,0,0,1,6-2.11,8,8,0,0,1,5.86,2.11,7.45,7.45,0,0,1,2.13,5.56,7.93,7.93,0,0,1-2.19,5.9A8.18,8.18,0,0,1,130.71,157.63Zm.12-12.19a3.08,3.08,0,0,0-2.55,1.13,4.93,4.93,0,0,0-.91,3.19q0,4.32,3.49,4.32,3.31,0,3.32-4.44Q134.18,145.44,130.83,145.44Z" style="fill:#8c9091"/><path d="M156.39,157.26h-4.62v-8.33c0-2.33-.83-3.49-2.49-3.49a2.46,2.46,0,0,0-2,.92,3.53,3.53,0,0,0-.78,2.35v8.55H141.9v-15h4.63v2.37h.06a5.31,5.31,0,0,1,4.82-2.74c3.32,0,5,2.07,5,6.19Z" style="fill:#8c9091"/><path d="M253.25,70.86h-12.6v-21h12.11V53.7h-7.38v4.68h6.87v3.83h-6.87V67h7.87Z" style="fill:#fff"/><path d="M271.67,70.11a13.85,13.85,0,0,1-6,1.11,10.11,10.11,0,0,1-7.61-2.84,10.4,10.4,0,0,1-2.76-7.57,11.09,11.09,0,0,1,3.11-8.18,10.88,10.88,0,0,1,8.08-3.13,15,15,0,0,1,5.18.78v4.55a9.15,9.15,0,0,0-4.8-1.26,6.39,6.39,0,0,0-4.78,1.86,6.9,6.9,0,0,0-1.81,5A6.8,6.8,0,0,0,262,65.33a6.07,6.07,0,0,0,4.61,1.81,9.82,9.82,0,0,0,5.07-1.35Z" style="fill:#fff"/><path d="M283.85,71.22a9.82,9.82,0,0,1-7.36-2.93,10.57,10.57,0,0,1-2.84-7.66,11.26,11.26,0,0,1,2.89-8.05,10,10,0,0,1,7.64-3.08,9.57,9.57,0,0,1,7.28,2.94,10.87,10.87,0,0,1,2.77,7.77,11.1,11.1,0,0,1-2.88,8A9.88,9.88,0,0,1,283.85,71.22Zm.2-17.65a4.73,4.73,0,0,0-3.95,1.87,7.75,7.75,0,0,0-1.47,4.94,7.63,7.63,0,0,0,1.47,4.94,4.68,4.68,0,0,0,3.83,1.82,4.76,4.76,0,0,0,3.89-1.77,7.61,7.61,0,0,0,1.43-4.9,8.16,8.16,0,0,0-1.39-5.08A4.55,4.55,0,0,0,284.05,53.57Z" style="fill:#fff"/><path d="M316.61,70.86h-4.77l-8.66-13.2a17.16,17.16,0,0,1-1.05-1.74h-.06q.12,1.11.12,3.39V70.86h-4.47v-21h5.1l8.33,12.79c.38.57.73,1.15,1.06,1.71h.05a24.63,24.63,0,0,1-.11-2.88V49.85h4.46Z" style="fill:#fff"/><path d="M330.3,71.22a9.82,9.82,0,0,1-7.36-2.93,10.57,10.57,0,0,1-2.84-7.66A11.26,11.26,0,0,1,323,52.58a10,10,0,0,1,7.64-3.08,9.55,9.55,0,0,1,7.28,2.94,10.87,10.87,0,0,1,2.77,7.77,11.1,11.1,0,0,1-2.88,8A9.88,9.88,0,0,1,330.3,71.22Zm.2-17.65a4.73,4.73,0,0,0-3.95,1.87,7.75,7.75,0,0,0-1.47,4.94,7.63,7.63,0,0,0,1.47,4.94,4.68,4.68,0,0,0,3.83,1.82,4.76,4.76,0,0,0,3.89-1.77,7.61,7.61,0,0,0,1.43-4.9,8.16,8.16,0,0,0-1.39-5.08A4.55,4.55,0,0,0,330.5,53.57Z" style="fill:#fff"/><path d="M368.1,70.86h-4.67V58.29q0-2,.18-4.5h-.12a20.26,20.26,0,0,1-.66,2.78l-4.92,14.29H354l-5-14.14a26,26,0,0,1-.66-2.93h-.13c.13,2.07.19,3.89.19,5.45V70.86h-4.26v-21h6.93l4.29,12.45a18.28,18.28,0,0,1,.75,3h.08q.4-1.74.84-3l4.29-12.42h6.75Z" style="fill:#fff"/><path d="M388.71,49.85l-6.84,13.54v7.47h-4.73V63.47l-6.66-13.62h5.4l3.39,7.84c.05.14.22.72.48,1.71h.06a7.58,7.58,0,0,1,.45-1.65l3.44-7.9Z" style="fill:#fff"/><path d="M552,56.86v-21h7.65a9.53,9.53,0,0,1,5.4,1.29,4.14,4.14,0,0,1,1.89,3.63,4.29,4.29,0,0,1-1.15,3,6,6,0,0,1-2.94,1.77v.06a5.8,5.8,0,0,1,3.59,1.65,4.66,4.66,0,0,1,1.34,3.36,5.61,5.61,0,0,1-2.07,4.58,8.7,8.7,0,0,1-5.64,1.69Zm4.73-17.52v5h2.08a3.49,3.49,0,0,0,2.31-.71,2.44,2.44,0,0,0,.84-2c0-1.54-1.15-2.31-3.46-2.31Zm0,8.49v5.54h2.57a3.94,3.94,0,0,0,2.57-.76,2.55,2.55,0,0,0,.93-2.08,2.39,2.39,0,0,0-.92-2,4,4,0,0,0-2.56-.72Z" style="fill:#fff"/><path d="M588.35,47.76q0,9.47-8.82,9.46Q571,57.22,571,48V35.85h4.75V48q0,5.1,4,5.1c2.6,0,3.91-1.64,3.91-4.93V35.85h4.73Z" style="fill:#fff"/><path d="M592,56.05V51.36A8.92,8.92,0,0,0,594.72,53a9.06,9.06,0,0,0,3,.53,6.62,6.62,0,0,0,1.56-.16,3.78,3.78,0,0,0,1.11-.45,2,2,0,0,0,.67-.67,1.75,1.75,0,0,0,.22-.84,1.85,1.85,0,0,0-.35-1.1,4,4,0,0,0-1-.89,10.15,10.15,0,0,0-1.45-.8c-.55-.25-1.15-.51-1.8-.77a9.27,9.27,0,0,1-3.67-2.51,5.47,5.47,0,0,1-1.21-3.57,5.71,5.71,0,0,1,.66-2.82,5.57,5.57,0,0,1,1.8-1.94A7.92,7.92,0,0,1,597,35.86a13.42,13.42,0,0,1,3.16-.36,19.36,19.36,0,0,1,2.91.2,11.51,11.51,0,0,1,2.33.6v4.38a7.82,7.82,0,0,0-1.14-.64,8.62,8.62,0,0,0-1.29-.46,10.16,10.16,0,0,0-1.31-.27,9.05,9.05,0,0,0-1.24-.09,6.62,6.62,0,0,0-1.46.15,3.78,3.78,0,0,0-1.11.44,2.06,2.06,0,0,0-.71.66,1.64,1.64,0,0,0-.25.87,1.71,1.71,0,0,0,.28.95,3.28,3.28,0,0,0,.79.79,8.27,8.27,0,0,0,1.25.73c.49.24,1,.49,1.65.74a19.22,19.22,0,0,1,2.27,1.12A8.13,8.13,0,0,1,604.8,47a5.33,5.33,0,0,1,1.1,1.71,6.09,6.09,0,0,1,.38,2.23,6,6,0,0,1-.67,3,5.4,5.4,0,0,1-1.81,1.93,7.81,7.81,0,0,1-2.66,1.06,15,15,0,0,1-3.2.32,18.31,18.31,0,0,1-3.29-.29A10.07,10.07,0,0,1,592,56.05Z" style="fill:#fff"/><path d="M616.22,35.85v3.66h-1.75V53.19h1.75v3.67H608V53.19h1.75V39.51H608V35.85Z" style="fill:#fff"/><path d="M638.14,56.86h-4.78l-8.65-13.2a20,20,0,0,1-1.06-1.74h-.06q.12,1.11.12,3.39V56.86h-4.47v-21h5.1l8.33,12.79c.38.57.74,1.15,1.06,1.71h.06a21.91,21.91,0,0,1-.12-2.88V35.85h4.47Z" style="fill:#fff"/><path d="M655.54,56.86h-12.6v-21h12.12V39.7h-7.39v4.68h6.87v3.83h-6.87V53h7.87Z" style="fill:#fff"/><path d="M657.94,56.05V51.36A8.92,8.92,0,0,0,660.71,53a9.06,9.06,0,0,0,3,.53,6.62,6.62,0,0,0,1.56-.16,3.78,3.78,0,0,0,1.11-.45,2,2,0,0,0,.67-.67,1.75,1.75,0,0,0,.22-.84,1.85,1.85,0,0,0-.35-1.1,4,4,0,0,0-1-.89,10.15,10.15,0,0,0-1.45-.8c-.55-.25-1.15-.51-1.8-.77a9.27,9.27,0,0,1-3.67-2.51,5.47,5.47,0,0,1-1.21-3.57,5.71,5.71,0,0,1,.66-2.82,5.57,5.57,0,0,1,1.8-1.94,8,8,0,0,1,2.63-1.12,13.42,13.42,0,0,1,3.16-.36,19.17,19.17,0,0,1,2.91.2,11.78,11.78,0,0,1,2.34.6v4.38A8.5,8.5,0,0,0,670.2,40a8.62,8.62,0,0,0-1.29-.46,10.16,10.16,0,0,0-1.31-.27,8.91,8.91,0,0,0-1.23-.09,6.65,6.65,0,0,0-1.47.15,3.78,3.78,0,0,0-1.11.44,2.06,2.06,0,0,0-.71.66,1.64,1.64,0,0,0-.25.87,1.71,1.71,0,0,0,.28.95,3.28,3.28,0,0,0,.79.79,8.8,8.8,0,0,0,1.25.73c.49.24,1,.49,1.65.74a19.22,19.22,0,0,1,2.27,1.12A8.13,8.13,0,0,1,670.79,47a5.33,5.33,0,0,1,1.1,1.71,6.09,6.09,0,0,1,.38,2.23,6,6,0,0,1-.67,3,5.4,5.4,0,0,1-1.81,1.93,7.73,7.73,0,0,1-2.66,1.06,15,15,0,0,1-3.2.32,18.2,18.2,0,0,1-3.28-.29A10.15,10.15,0,0,1,657.94,56.05Z" style="fill:#fff"/><path d="M674.76,56.05V51.36a8.93,8.93,0,0,0,5.78,2.14,6.66,6.66,0,0,0,1.57-.16,3.78,3.78,0,0,0,1.11-.45,1.83,1.83,0,0,0,.66-.67,1.65,1.65,0,0,0,.22-.84,1.78,1.78,0,0,0-.35-1.1,3.61,3.61,0,0,0-1-.89,9.49,9.49,0,0,0-1.44-.8c-.56-.25-1.16-.51-1.8-.77a9.27,9.27,0,0,1-3.67-2.51,5.42,5.42,0,0,1-1.21-3.57,5.71,5.71,0,0,1,.66-2.82A5.64,5.64,0,0,1,677.12,37a8.1,8.1,0,0,1,2.63-1.12,13.5,13.5,0,0,1,3.17-.36,19.36,19.36,0,0,1,2.91.2,11.51,11.51,0,0,1,2.33.6v4.38A7.44,7.44,0,0,0,687,40a8.13,8.13,0,0,0-1.28-.46,10.52,10.52,0,0,0-1.31-.27,9.05,9.05,0,0,0-1.24-.09,6.55,6.55,0,0,0-1.46.15,4,4,0,0,0-1.12.44,2.12,2.12,0,0,0-.7.66,1.55,1.55,0,0,0-.25.87,1.63,1.63,0,0,0,.28.95,3.28,3.28,0,0,0,.79.79,8.27,8.27,0,0,0,1.25.73c.48.24,1,.49,1.65.74a18.31,18.31,0,0,1,2.26,1.12A8.2,8.2,0,0,1,687.61,47a5.31,5.31,0,0,1,1.09,1.71,5.89,5.89,0,0,1,.38,2.23,6.08,6.08,0,0,1-.66,3,5.49,5.49,0,0,1-1.81,1.93A7.81,7.81,0,0,1,684,56.9a15,15,0,0,1-3.2.32,18.31,18.31,0,0,1-3.29-.29A10.07,10.07,0,0,1,674.76,56.05Z" style="fill:#fff"/><path d="M536.24,85.19a5.49,5.49,0,0,1-1.47-.2,6.38,6.38,0,0,1-1.32-.56,7.2,7.2,0,0,1-1.18-.83,11.11,11.11,0,0,1-1-1,13.14,13.14,0,0,1-1.3.9,10.32,10.32,0,0,1-1.73.85,14.24,14.24,0,0,1-2.11.61,12.21,12.21,0,0,1-2.48.24,11.42,11.42,0,0,1-3.17-.41,7.25,7.25,0,0,1-2.51-1.22,5.65,5.65,0,0,1-1.65-2,6.3,6.3,0,0,1-.59-2.79,5.4,5.4,0,0,1,.44-2.22,6,6,0,0,1,1.17-1.7,7.66,7.66,0,0,1,1.62-1.26,12,12,0,0,1,1.85-.88c-.3-.24-.61-.51-.92-.81a6.78,6.78,0,0,1-.82-1,5.31,5.31,0,0,1-.6-1.19,4.08,4.08,0,0,1-.22-1.36,4.25,4.25,0,0,1,.47-2A4.31,4.31,0,0,1,520,64.76a6.23,6.23,0,0,1,2-.94,9.91,9.91,0,0,1,2.58-.32,8.38,8.38,0,0,1,2.47.34,6,6,0,0,1,1.92.93,4.21,4.21,0,0,1,1.25,1.45,4,4,0,0,1,.44,1.85,4.34,4.34,0,0,1-1,2.82,6.9,6.9,0,0,1-2.74,1.94,10.82,10.82,0,0,1,1.34.73,12.11,12.11,0,0,1,1.26.94,13.49,13.49,0,0,1,1.21,1.19,15.24,15.24,0,0,1,1.15,1.53A9.46,9.46,0,0,0,533.61,74a12,12,0,0,0,.52-3.55,9.2,9.2,0,0,0-.06-1.07,6.33,6.33,0,0,0-.21-1h3.94a6.62,6.62,0,0,1,.23.9,6.38,6.38,0,0,1,.07,1,12.71,12.71,0,0,1-.3,2.77,13.9,13.9,0,0,1-.84,2.58,13.65,13.65,0,0,1-1.31,2.33,16.74,16.74,0,0,1-1.69,2,5.88,5.88,0,0,0,1.48,1.15,3,3,0,0,0,1.43.4,7.19,7.19,0,0,0,1.44-.15,5.11,5.11,0,0,0,1.27-.43v3.48A8,8,0,0,1,538,85,9.28,9.28,0,0,1,536.24,85.19Zm-12.4-3.5a7.06,7.06,0,0,0,1.62-.17,9,9,0,0,0,1.44-.44,8.19,8.19,0,0,0,1.25-.65,10,10,0,0,0,1.06-.76,15,15,0,0,0-1.48-2,12.52,12.52,0,0,0-1.45-1.4,10,10,0,0,0-1.43-1c-.47-.26-1-.5-1.42-.72a12.71,12.71,0,0,0-1.15.65,4.68,4.68,0,0,0-1,.84,4,4,0,0,0-.68,1.08,3.6,3.6,0,0,0-.26,1.4,3.28,3.28,0,0,0,.25,1.28,3,3,0,0,0,.71,1,3.62,3.62,0,0,0,1.1.64A4.27,4.27,0,0,0,523.84,81.69Zm2.71-13.3a1.7,1.7,0,0,0-.17-.76,1.59,1.59,0,0,0-.43-.56,2.45,2.45,0,0,0-.63-.36,2.36,2.36,0,0,0-.75-.12,2.56,2.56,0,0,0-.89.15,2.26,2.26,0,0,0-.7.39,1.73,1.73,0,0,0-.62,1.33,2.48,2.48,0,0,0,.51,1.51,4.14,4.14,0,0,0,1.27,1.12,7.75,7.75,0,0,0,.92-.41,3.65,3.65,0,0,0,.76-.56,2.37,2.37,0,0,0,.53-.75A2.32,2.32,0,0,0,526.55,68.39Z" style="fill:#fff"/><path d="M562.89,67.7h-7.41v5.16h6.81V76.7h-6.81v8.16h-4.73v-21h12.14Z" style="fill:#fff"/><path d="M572.83,63.85v3.66h-1.75V81.19h1.75v3.67h-8.24V81.19h1.76V67.51h-1.76V63.85Z" style="fill:#fff"/><path d="M593.47,84.86H588l-3.27-5.41c-.24-.41-.48-.78-.7-1.1a5.93,5.93,0,0,0-.68-.83,2.85,2.85,0,0,0-.72-.52,1.86,1.86,0,0,0-.81-.19h-1.28v8h-4.73v-21h7.5q7.65,0,7.65,5.71a5.77,5.77,0,0,1-.34,2,5.57,5.57,0,0,1-.95,1.68,6,6,0,0,1-1.49,1.29,7.76,7.76,0,0,1-1.94.85v.06a2.83,2.83,0,0,1,.91.47,6.72,6.72,0,0,1,.85.77,9.18,9.18,0,0,1,.78,1,11.67,11.67,0,0,1,.68,1ZM580.58,67.4v5.84h2a3.38,3.38,0,0,0,2.45-.88,2.9,2.9,0,0,0,.94-2.21c0-1.84-1.1-2.75-3.3-2.75Z" style="fill:#fff"/><path d="M594.47,84.05V79.36A8.92,8.92,0,0,0,597.24,81a9.06,9.06,0,0,0,3,.53,6.62,6.62,0,0,0,1.56-.16,3.78,3.78,0,0,0,1.11-.45,2,2,0,0,0,.67-.67,1.75,1.75,0,0,0,.22-.84,1.79,1.79,0,0,0-.36-1.1,3.72,3.72,0,0,0-1-.89,10.15,10.15,0,0,0-1.45-.8c-.55-.25-1.15-.51-1.8-.77a9.27,9.27,0,0,1-3.67-2.51,5.47,5.47,0,0,1-1.21-3.57,5.71,5.71,0,0,1,.66-2.82,5.57,5.57,0,0,1,1.8-1.94,7.92,7.92,0,0,1,2.63-1.12,13.42,13.42,0,0,1,3.16-.36,19.36,19.36,0,0,1,2.91.2,11.51,11.51,0,0,1,2.33.6v4.38a7.44,7.44,0,0,0-1.15-.64,8.13,8.13,0,0,0-1.28-.46,10.16,10.16,0,0,0-1.31-.27,9.05,9.05,0,0,0-1.24-.09,6.62,6.62,0,0,0-1.46.15,3.78,3.78,0,0,0-1.11.44,2.06,2.06,0,0,0-.71.66,1.64,1.64,0,0,0-.25.87,1.71,1.71,0,0,0,.28,1,3.28,3.28,0,0,0,.79.79,8.27,8.27,0,0,0,1.25.73c.49.24,1,.49,1.65.74a19.22,19.22,0,0,1,2.27,1.12A8.13,8.13,0,0,1,607.32,75a5.33,5.33,0,0,1,1.1,1.71A6.09,6.09,0,0,1,608.8,79a6,6,0,0,1-.67,3,5.4,5.4,0,0,1-1.81,1.93,7.81,7.81,0,0,1-2.66,1.06,15,15,0,0,1-3.2.32,18.31,18.31,0,0,1-3.29-.29A10.07,10.07,0,0,1,594.47,84.05Z" style="fill:#fff"/><path d="M627,67.7h-6V84.86h-4.74V67.7h-6V63.85H627Z" style="fill:#fff"/><path d="M653.17,84.11a13.93,13.93,0,0,1-6,1.11,10.09,10.09,0,0,1-7.6-2.84,10.36,10.36,0,0,1-2.77-7.57,11.13,11.13,0,0,1,3.11-8.18A10.9,10.9,0,0,1,648,63.5a15.09,15.09,0,0,1,5.19.78v4.55a9.21,9.21,0,0,0-4.81-1.26,6.36,6.36,0,0,0-4.77,1.86,6.91,6.91,0,0,0-1.82,5,6.8,6.8,0,0,0,1.71,4.86,6.11,6.11,0,0,0,4.62,1.81,9.87,9.87,0,0,0,5.07-1.35Z" style="fill:#fff"/><path d="M669.34,84.86H656.83v-21h4.73V81h7.78Z" style="fill:#fff"/><path d="M691.3,84.86h-5.16l-1.49-4.68h-7.47l-1.48,4.68h-5.13l7.65-21h5.61Zm-7.74-8.31-2.25-7.06A8.5,8.5,0,0,1,681,67.6h-.12a7.72,7.72,0,0,1-.37,1.83l-2.28,7.12Z" style="fill:#fff"/><path d="M693,84.05V79.36A8.92,8.92,0,0,0,695.72,81a9.06,9.06,0,0,0,3,.53,6.62,6.62,0,0,0,1.56-.16,3.78,3.78,0,0,0,1.11-.45,2,2,0,0,0,.67-.67,1.75,1.75,0,0,0,.22-.84,1.85,1.85,0,0,0-.35-1.1,4,4,0,0,0-1-.89,10.15,10.15,0,0,0-1.45-.8c-.55-.25-1.15-.51-1.8-.77a9.27,9.27,0,0,1-3.67-2.51,5.47,5.47,0,0,1-1.21-3.57,5.71,5.71,0,0,1,.66-2.82,5.57,5.57,0,0,1,1.8-1.94A8,8,0,0,1,698,63.86a13.42,13.42,0,0,1,3.16-.36,19.27,19.27,0,0,1,2.91.2,11.78,11.78,0,0,1,2.34.6v4.38a8.5,8.5,0,0,0-1.15-.64,8.62,8.62,0,0,0-1.29-.46,10.16,10.16,0,0,0-1.31-.27,8.91,8.91,0,0,0-1.23-.09,6.65,6.65,0,0,0-1.47.15,3.78,3.78,0,0,0-1.11.44,2.06,2.06,0,0,0-.71.66,1.64,1.64,0,0,0-.25.87,1.71,1.71,0,0,0,.28,1,3.28,3.28,0,0,0,.79.79,8.8,8.8,0,0,0,1.25.73c.49.24,1,.49,1.65.74a19.22,19.22,0,0,1,2.27,1.12A8.13,8.13,0,0,1,705.8,75a5.33,5.33,0,0,1,1.1,1.71,6.09,6.09,0,0,1,.38,2.23,6,6,0,0,1-.67,3,5.4,5.4,0,0,1-1.81,1.93,7.73,7.73,0,0,1-2.66,1.06,15,15,0,0,1-3.2.32,18.2,18.2,0,0,1-3.28-.29A10.15,10.15,0,0,1,693,84.05Z" style="fill:#fff"/><path d="M709.77,84.05V79.36a8.93,8.93,0,0,0,5.78,2.14,6.66,6.66,0,0,0,1.57-.16,3.78,3.78,0,0,0,1.11-.45,1.83,1.83,0,0,0,.66-.67,1.65,1.65,0,0,0,.22-.84,1.78,1.78,0,0,0-.35-1.1,3.61,3.61,0,0,0-1-.89,9.49,9.49,0,0,0-1.44-.8c-.56-.25-1.16-.51-1.8-.77a9.27,9.27,0,0,1-3.67-2.51,5.42,5.42,0,0,1-1.21-3.57,5.71,5.71,0,0,1,.66-2.82A5.64,5.64,0,0,1,712.13,65a8.1,8.1,0,0,1,2.63-1.12,13.5,13.5,0,0,1,3.17-.36,19.36,19.36,0,0,1,2.91.2,11.51,11.51,0,0,1,2.33.6v4.38A7.44,7.44,0,0,0,722,68a8.13,8.13,0,0,0-1.28-.46,10.52,10.52,0,0,0-1.31-.27,9.05,9.05,0,0,0-1.24-.09,6.55,6.55,0,0,0-1.46.15,4,4,0,0,0-1.12.44,2.12,2.12,0,0,0-.7.66,1.55,1.55,0,0,0-.25.87,1.63,1.63,0,0,0,.28,1,3.11,3.11,0,0,0,.79.79,8.27,8.27,0,0,0,1.25.73c.48.24,1,.49,1.65.74a18.31,18.31,0,0,1,2.26,1.12A8.2,8.2,0,0,1,722.62,75a5.31,5.31,0,0,1,1.09,1.71,5.89,5.89,0,0,1,.38,2.23,6.08,6.08,0,0,1-.66,3,5.49,5.49,0,0,1-1.81,1.93A7.81,7.81,0,0,1,719,84.9a15,15,0,0,1-3.2.32,18.31,18.31,0,0,1-3.29-.29A10.07,10.07,0,0,1,709.77,84.05Z" style="fill:#fff"/><path d="M65,237.57H60.33V225c0-1.36.06-2.86.17-4.5h-.11a23.81,23.81,0,0,1-.66,2.78l-4.92,14.28H50.94l-5-14.13a26,26,0,0,1-.66-2.93h-.13c.12,2.07.19,3.89.19,5.45v11.61H41.06v-21H48L52.29,229a17.28,17.28,0,0,1,.74,3h.09a27.67,27.67,0,0,1,.84-3l4.29-12.42H65Z" style="fill:#8c9091"/><path d="M81.8,237.57H77.42v-2.15h-.06a4.87,4.87,0,0,1-4.46,2.52,4.67,4.67,0,0,1-3.44-1.24,4.43,4.43,0,0,1-1.25-3.3q0-4.36,5.17-5l4.07-.54c0-1.64-.89-2.46-2.66-2.46a9.12,9.12,0,0,0-5.1,1.59v-3.48a11.23,11.23,0,0,1,2.64-.88,13.58,13.58,0,0,1,3.06-.38q6.4,0,6.41,6.4Zm-4.35-6.09v-1l-2.72.35c-1.51.2-2.26.88-2.26,2a1.66,1.66,0,0,0,.55,1.29,2.11,2.11,0,0,0,1.49.51,2.74,2.74,0,0,0,2.12-.9A3.24,3.24,0,0,0,77.45,231.48Z" style="fill:#8c9091"/><path d="M87.81,220.2a2.72,2.72,0,0,1-1.92-.69,2.26,2.26,0,0,1-.75-1.71,2.17,2.17,0,0,1,.75-1.7,2.8,2.8,0,0,1,1.92-.66,2.76,2.76,0,0,1,1.92.66,2.16,2.16,0,0,1,.74,1.7,2.22,2.22,0,0,1-.74,1.73A2.72,2.72,0,0,1,87.81,220.2Zm2.28,17.37H85.46v-15h4.63Z" style="fill:#8c9091"/><path d="M108.48,237.57h-4.62v-8.33c0-2.33-.83-3.49-2.49-3.49a2.44,2.44,0,0,0-2,.93,3.48,3.48,0,0,0-.78,2.34v8.55H94v-15h4.63V225h.06a5.29,5.29,0,0,1,4.82-2.74q5,0,5,6.18Z" style="fill:#8c9091"/><path d="M45.24,263.57H40.61v-22.2h4.63Z" style="fill:#8c9091"/><path d="M63.39,263.57H58.77v-2.28H58.7a5.22,5.22,0,0,1-4.58,2.65q-5.22,0-5.22-6.31v-9.06h4.62v8.65q0,3.18,2.52,3.18a2.47,2.47,0,0,0,2-.88,3.5,3.5,0,0,0,.74-2.36v-8.59h4.62Z" style="fill:#8c9091"/><path d="M82,261.86a8.5,8.5,0,0,1-2.41,6.47c-1.62,1.53-4,2.29-7,2.29a11.17,11.17,0,0,1-4.8-.86v-3.9a9.18,9.18,0,0,0,4.67,1.35A5,5,0,0,0,76.07,266a4.45,4.45,0,0,0,1.29-3.36v-1.19h0a5.19,5.19,0,0,1-4.68,2.52,5.6,5.6,0,0,1-4.55-2,8.18,8.18,0,0,1-1.69-5.42,9.12,9.12,0,0,1,1.88-6.05,6.09,6.09,0,0,1,4.93-2.24,4.56,4.56,0,0,1,4.11,2.11h0v-1.75H82Zm-4.57-5.49v-1.19a3.64,3.64,0,0,0-.84-2.42,2.72,2.72,0,0,0-2.19-1A2.84,2.84,0,0,0,72,253a5.7,5.7,0,0,0-.88,3.39,4.71,4.71,0,0,0,.84,3,2.73,2.73,0,0,0,2.28,1.1,2.84,2.84,0,0,0,2.33-1.11A4.54,4.54,0,0,0,77.42,256.37Z" style="fill:#8c9091"/><path d="M100.57,261.86a8.51,8.51,0,0,1-2.42,6.47c-1.61,1.53-4,2.29-7,2.29a11.22,11.22,0,0,1-4.81-.86v-3.9A9.21,9.21,0,0,0,91,267.21,5.05,5.05,0,0,0,94.65,266a4.45,4.45,0,0,0,1.29-3.36v-1.19h-.06a5.17,5.17,0,0,1-4.67,2.52,5.61,5.61,0,0,1-4.56-2A8.23,8.23,0,0,1,85,256.5a9.12,9.12,0,0,1,1.87-6.05,6.11,6.11,0,0,1,4.94-2.24,4.55,4.55,0,0,1,4.1,2.11h.06v-1.75h4.63ZM96,256.37v-1.19a3.59,3.59,0,0,0-.85-2.42,2.72,2.72,0,0,0-2.19-1,2.82,2.82,0,0,0-2.41,1.2,5.63,5.63,0,0,0-.88,3.39,4.77,4.77,0,0,0,.83,3,2.73,2.73,0,0,0,2.29,1.1,2.82,2.82,0,0,0,2.32-1.11A4.54,4.54,0,0,0,96,256.37Z" style="fill:#8c9091"/><path d="M116.91,263.57h-4.38v-2.15h0a4.9,4.9,0,0,1-4.47,2.52,4.67,4.67,0,0,1-3.44-1.24,4.43,4.43,0,0,1-1.25-3.3q0-4.36,5.17-5l4.07-.54c0-1.64-.88-2.46-2.66-2.46a9.12,9.12,0,0,0-5.1,1.59v-3.48a11.39,11.39,0,0,1,2.64-.88,13.58,13.58,0,0,1,3.06-.38q6.42,0,6.41,6.4Zm-4.35-6.09v-1l-2.72.35c-1.5.2-2.26.88-2.26,2a1.69,1.69,0,0,0,.55,1.29,2.11,2.11,0,0,0,1.49.51,2.72,2.72,0,0,0,2.12-.9A3.24,3.24,0,0,0,112.56,257.48Z" style="fill:#8c9091"/><path d="M135.28,261.86a8.5,8.5,0,0,1-2.41,6.47q-2.42,2.3-7,2.29a11.17,11.17,0,0,1-4.8-.86v-3.9a9.18,9.18,0,0,0,4.67,1.35,5.06,5.06,0,0,0,3.64-1.24,4.45,4.45,0,0,0,1.28-3.36v-1.19h-.05a5.19,5.19,0,0,1-4.68,2.52,5.6,5.6,0,0,1-4.55-2,8.18,8.18,0,0,1-1.69-5.42,9.12,9.12,0,0,1,1.88-6.05,6.09,6.09,0,0,1,4.93-2.24,4.56,4.56,0,0,1,4.11,2.11h.05v-1.75h4.63Zm-4.57-5.49v-1.19a3.64,3.64,0,0,0-.84-2.42,2.72,2.72,0,0,0-2.19-1,2.85,2.85,0,0,0-2.42,1.2,5.7,5.7,0,0,0-.87,3.39,4.71,4.71,0,0,0,.83,3,2.73,2.73,0,0,0,2.29,1.1,2.83,2.83,0,0,0,2.32-1.11A4.54,4.54,0,0,0,130.71,256.37Z" style="fill:#8c9091"/><path d="M152.63,257.39h-9.79q.24,3.27,4.12,3.27a8,8,0,0,0,4.35-1.17v3.34a11.48,11.48,0,0,1-5.41,1.11,7,7,0,0,1-7.64-7.63,8,8,0,0,1,2.17-5.92,7.23,7.23,0,0,1,5.33-2.18,6.54,6.54,0,0,1,5.07,1.95,7.46,7.46,0,0,1,1.8,5.28Zm-4.29-2.84c0-2.15-.87-3.22-2.61-3.22a2.51,2.51,0,0,0-1.93.92,4.23,4.23,0,0,0-1,2.3Z" style="fill:#8c9091"/><line x1="456.39" y1="103.75" x2="456.39" y2="290.94" style="fill:none;stroke:#b19863;stroke-miterlimit:10;stroke-width:2px"/><line x1="456.39" y1="17.45" x2="456.39" y2="103.75" style="fill:none;stroke:#fff;stroke-miterlimit:10;stroke-width:2px"/><path d="M178.17,279v4.26c0,9.35,6.74,16.92,15.06,16.92H766.36c9.15,0,16.56-8.32,16.56-18.59V277" style="fill:none;stroke:#9a9a9a;stroke-linecap:round;stroke-miterlimit:10;stroke-width:2px;stroke-dasharray:0,4"/><path d="M353.59,139.37l-8.12,20.68h-5.36l8.19-18.88H337.57V137h16Z" style="fill:#8c9091"/><path d="M373.55,160.05h-6.08l-5.25-8.15h-.07v8.15h-5.07V135.71h5.07v15.5h.07l4.89-7.6h6l-5.9,7.72Z" style="fill:#8c9091"/><path d="M391.12,158.17a9.28,9.28,0,0,1-2.65,7.09c-1.77,1.68-4.33,2.51-7.68,2.51a12.17,12.17,0,0,1-5.26-.94v-4.27a10.12,10.12,0,0,0,5.12,1.47,5.53,5.53,0,0,0,4-1.35A4.9,4.9,0,0,0,386,159v-1.3H386a5.67,5.67,0,0,1-5.12,2.76,6.2,6.2,0,0,1-5-2.21A9,9,0,0,1,374,152.3a10,10,0,0,1,2.05-6.63,6.71,6.71,0,0,1,5.41-2.46,5,5,0,0,1,4.5,2.31H386v-1.91h5.08Zm-5-6v-1.3a4,4,0,0,0-.92-2.66,3,3,0,0,0-2.4-1.1,3.09,3.09,0,0,0-2.65,1.32,6.15,6.15,0,0,0-1,3.71,5.23,5.23,0,0,0,.92,3.25,3,3,0,0,0,2.5,1.2,3.14,3.14,0,0,0,2.55-1.21A5,5,0,0,0,386.11,152.15Z" style="fill:#8c9091"/><path d="M262,170.22H246.89a6.63,6.63,0,0,1-6.62-7l1.19-22.71a6.62,6.62,0,0,1,6.62-6.29h12.69a6.62,6.62,0,0,1,6.62,6.29l1.19,22.71A6.63,6.63,0,0,1,262,170.22Z" style="fill:none;stroke:#5eabc8;stroke-linecap:round;stroke-miterlimit:10;stroke-width:2px"/><path d="M255.66,149.45h3.39a4.7,4.7,0,0,0,4.71-4.7V136" style="fill:none;stroke:#5eabc8;stroke-linecap:round;stroke-miterlimit:10;stroke-width:2px"/><path d="M244.26,136.56v8.19a4.7,4.7,0,0,0,4.71,4.7h3.39" style="fill:none;stroke:#5eabc8;stroke-linecap:round;stroke-miterlimit:10;stroke-width:2px"/><rect x="252.36" y="145.9" width="3.29" height="7.07" rx="1.65" style="fill:none;stroke:#5eabc8;stroke-linecap:round;stroke-miterlimit:10;stroke-width:2px"/><path d="M241,149.11h-1.85a2.47,2.47,0,0,0-2.46,2.26L236,158.9a2.31,2.31,0,0,0,2.31,2.51h2" style="fill:none;stroke:#5eabc8;stroke-linecap:round;stroke-miterlimit:10;stroke-width:2px"/><path d="M268,149.75h1.84a2.49,2.49,0,0,1,2.47,2.26l.66,7.52a2.31,2.31,0,0,1-2.31,2.52h-2" style="fill:none;stroke:#5eabc8;stroke-linecap:round;stroke-miterlimit:10;stroke-width:2px"/><path d="M247.14,134.24l1.8-2a6.78,6.78,0,0,1,10-.08l1.92,2.08" style="fill:none;stroke:#5eabc8;stroke-linecap:round;stroke-miterlimit:10;stroke-width:2px"/><path d="M245.76,170.12v-3a3.87,3.87,0,0,1,3.87-3.87h9.9a3.86,3.86,0,0,1,3.86,3.87v2.91" style="fill:none;stroke:#5eabc8;stroke-linecap:round;stroke-linejoin:round;stroke-width:2px"/><path d="M578.66,170.22H563.59a6.63,6.63,0,0,1-6.62-7l1.19-22.71a6.62,6.62,0,0,1,6.62-6.29h12.69a6.62,6.62,0,0,1,6.62,6.29l1.19,22.71A6.63,6.63,0,0,1,578.66,170.22Z" style="fill:none;stroke:#5eabc8;stroke-linecap:round;stroke-miterlimit:10;stroke-width:2px"/><path d="M572.36,149.45h3.4a4.7,4.7,0,0,0,4.7-4.7V136" style="fill:none;stroke:#5eabc8;stroke-linecap:round;stroke-miterlimit:10;stroke-width:2px"/><path d="M561,136.56v8.19a4.7,4.7,0,0,0,4.71,4.7h3.4" style="fill:none;stroke:#5eabc8;stroke-linecap:round;stroke-miterlimit:10;stroke-width:2px"/><rect x="569.07" y="145.9" width="3.29" height="7.07" rx="1.65" style="fill:none;stroke:#5eabc8;stroke-linecap:round;stroke-miterlimit:10;stroke-width:2px"/><path d="M557.71,149.11h-1.85a2.47,2.47,0,0,0-2.46,2.26l-.67,7.53a2.32,2.32,0,0,0,2.31,2.51h2" style="fill:none;stroke:#5eabc8;stroke-linecap:round;stroke-miterlimit:10;stroke-width:2px"/><path d="M584.68,149.75h1.84A2.47,2.47,0,0,1,589,152l.66,7.52a2.31,2.31,0,0,1-2.3,2.52h-2" style="fill:none;stroke:#5eabc8;stroke-linecap:round;stroke-miterlimit:10;stroke-width:2px"/><path d="M563.84,134.24l1.8-2a6.78,6.78,0,0,1,10-.08l1.92,2.08" style="fill:none;stroke:#5eabc8;stroke-linecap:round;stroke-miterlimit:10;stroke-width:2px"/><path d="M562.46,170.12v-3a3.87,3.87,0,0,1,3.87-3.87h9.9a3.86,3.86,0,0,1,3.86,3.87v2.91" style="fill:none;stroke:#5eabc8;stroke-linecap:round;stroke-linejoin:round;stroke-width:2px"/><path d="M664.7,137.73l-8.13,20.68h-5.36l8.19-18.88H648.67v-4.14h16Z" style="fill:#8c9091"/><path d="M684.65,158.41h-6.08l-5.25-8.15h-.07v8.15h-5.07V134.07h5.07v15.5h.07l4.9-7.6h6l-5.9,7.73Z" style="fill:#8c9091"/><path d="M702.22,156.54a9.26,9.26,0,0,1-2.65,7.08c-1.77,1.68-4.32,2.52-7.67,2.52a12.17,12.17,0,0,1-5.27-.95v-4.27a10.14,10.14,0,0,0,5.12,1.48,5.53,5.53,0,0,0,4-1.36,4.87,4.87,0,0,0,1.42-3.68v-1.31h-.07a5.64,5.64,0,0,1-5.12,2.77,6.14,6.14,0,0,1-5-2.22,9,9,0,0,1-1.85-5.94,10,10,0,0,1,2-6.63,6.72,6.72,0,0,1,5.42-2.46,5,5,0,0,1,4.49,2.31h.07V142h5.07Zm-5-6v-1.31a4,4,0,0,0-.92-2.65,3,3,0,0,0-2.4-1.1,3.11,3.11,0,0,0-2.65,1.31,6.15,6.15,0,0,0-1,3.71,5.21,5.21,0,0,0,.92,3.25,3,3,0,0,0,2.5,1.2,3.11,3.11,0,0,0,2.55-1.21A5,5,0,0,0,697.21,150.52Z" style="fill:#8c9091"/><line x1="178.17" y1="188.69" x2="777.8" y2="188.69" style="fill:none;stroke:#b19863;stroke-miterlimit:10;stroke-width:2px"/><path d="M336.47,250.58v-4.41a8.94,8.94,0,0,0,5.4,1.69,4.82,4.82,0,0,0,3-.84,2.79,2.79,0,0,0,1.09-2.33,2.63,2.63,0,0,0-1.34-2.37,7,7,0,0,0-3.69-.84h-2.07V237.6h1.91q4.5,0,4.5-3c0-1.87-1.16-2.81-3.46-2.81a7.88,7.88,0,0,0-4.49,1.49v-4.14a12.44,12.44,0,0,1,5.65-1.22,8.54,8.54,0,0,1,5.5,1.59,5.06,5.06,0,0,1,2,4.13c0,3-1.53,4.89-4.58,5.65v.08a6.17,6.17,0,0,1,3.85,1.77,5,5,0,0,1,1.42,3.61,6.17,6.17,0,0,1-2.36,5.1,10.24,10.24,0,0,1-6.52,1.88A12.49,12.49,0,0,1,336.47,250.58Z" style="fill:#8c9091"/><path d="M362.37,251.74q-8.22,0-8.22-11.54,0-6,2.22-9.13a7.41,7.41,0,0,1,6.45-3.14q8,0,8,11.74,0,5.84-2.19,9A7.25,7.25,0,0,1,362.37,251.74Zm.22-19.94q-3.29,0-3.29,8.27,0,7.78,3.23,7.79t3.15-8Q365.68,231.8,362.59,231.8Z" style="fill:#8c9091"/><path d="M390.55,251.34h-6.09l-5.25-8.16h-.06v8.16h-5.08V227h5.08v15.49h.06l4.9-7.59h6l-5.89,7.72Z" style="fill:#8c9091"/><path d="M408.11,249.46a9.3,9.3,0,0,1-2.65,7.09c-1.76,1.68-4.32,2.51-7.67,2.51a12.06,12.06,0,0,1-5.27-.95v-4.27a10,10,0,0,0,5.13,1.48,5.49,5.49,0,0,0,4-1.36,4.86,4.86,0,0,0,1.41-3.68V249H403a5.68,5.68,0,0,1-5.13,2.76,6.18,6.18,0,0,1-5-2.21,9,9,0,0,1-1.85-5.95,10,10,0,0,1,2.06-6.63,6.72,6.72,0,0,1,5.41-2.45,5,5,0,0,1,4.5,2.31H403V234.9h5.07Zm-5-6v-1.3a4,4,0,0,0-.92-2.66,3,3,0,0,0-2.4-1.1,3.1,3.1,0,0,0-2.65,1.32,6.21,6.21,0,0,0-1,3.71,5.23,5.23,0,0,0,.91,3.25,3,3,0,0,0,2.51,1.2,3.09,3.09,0,0,0,2.54-1.22A5,5,0,0,0,403.1,243.44Z" style="fill:#8c9091"/><path d="M239.33,268.49H224.41a5.1,5.1,0,0,1-5.1-5.1V228.77a5.1,5.1,0,0,1,5.1-5.1h23.06a5.1,5.1,0,0,1,5.1,5.1v11.67" style="fill:none;stroke:#b19863;stroke-linecap:round;stroke-miterlimit:10;stroke-width:2px"/><path d="M229.65,223.43V210.52a2.36,2.36,0,0,1,2.36-2.36h6.85a2.36,2.36,0,0,1,2.36,2.36v12.91" style="fill:none;stroke:#b19863;stroke-linecap:round;stroke-miterlimit:10;stroke-width:2px"/><circle cx="229.01" cy="273.11" r="2.89" style="fill:none;stroke:#b19863;stroke-linecap:round;stroke-miterlimit:10;stroke-width:2px"/><line x1="217.75" y1="277.9" x2="288.01" y2="277.9" style="fill:none;stroke:#b19863;stroke-linecap:round;stroke-miterlimit:10;stroke-width:2px"/><line x1="228.81" y1="227.83" x2="228.81" y2="264.33" style="fill:none;stroke:#b19863;stroke-linecap:round;stroke-miterlimit:10;stroke-width:2px"/><line x1="235.74" y1="227.92" x2="235.74" y2="264.42" style="fill:none;stroke:#b19863;stroke-linecap:round;stroke-miterlimit:10;stroke-width:2px"/><line x1="242.67" y1="228.02" x2="242.67" y2="241.67" style="fill:none;stroke:#b19863;stroke-linecap:round;stroke-miterlimit:10;stroke-width:2px"/><path d="M258.35,240.44V237.8a2.71,2.71,0,0,1,2.71-2.71h5.71a2.71,2.71,0,0,1,2.71,2.71v2.64" style="fill:none;stroke:#5eabc8;stroke-miterlimit:10;stroke-width:2px"/><line x1="246.56" y1="273.56" x2="246.56" y2="276.65" style="fill:none;stroke:#5eabc8;stroke-linecap:round;stroke-linejoin:round;stroke-width:2px"/><line x1="280.78" y1="273.56" x2="280.78" y2="276.65" style="fill:none;stroke:#5eabc8;stroke-linecap:round;stroke-linejoin:round;stroke-width:2px"/><rect x="239.78" y="240.44" width="48.23" height="33.12" rx="6.81" style="fill:none;stroke:#5eabc8;stroke-miterlimit:10;stroke-width:2px"/><line x1="278.68" y1="240.44" x2="278.68" y2="273.11" style="fill:none;stroke:#5eabc8;stroke-miterlimit:10;stroke-width:2px"/><line x1="248.94" y1="240.44" x2="248.94" y2="273.56" style="fill:none;stroke:#5eabc8;stroke-miterlimit:10;stroke-width:2px"/><polygon points="267.25 265.39 270.68 260.09 273.83 265.22 267.25 265.39" style="fill:none;stroke:#5eabc8;stroke-linecap:round;stroke-linejoin:round;stroke-width:2px"/><circle cx="270.7" cy="250.38" r="3.46" style="fill:none;stroke:#5eabc8;stroke-linecap:round;stroke-linejoin:round;stroke-width:2px"/><rect x="253.83" y="253.22" width="7.7" height="4.61" transform="translate(-104.34 230.31) rotate(-40.77)" style="fill:none;stroke:#5eabc8;stroke-linecap:round;stroke-linejoin:round;stroke-width:2px"/><path d="M648.11,250.75v-4.34a9.5,9.5,0,0,0,5,1.45,4.73,4.73,0,0,0,3.14-1,3.23,3.23,0,0,0,1.13-2.59q0-3.42-4.84-3.42a29.1,29.1,0,0,0-3.8.29V228.32h12.75v4.14H653.1v4.61A18.73,18.73,0,0,1,655,237a7.86,7.86,0,0,1,5.55,1.86,6.49,6.49,0,0,1,2,5,7.41,7.41,0,0,1-2.39,5.69,9.17,9.17,0,0,1-6.49,2.21A14,14,0,0,1,648.11,250.75Z" style="fill:#8c9091"/><path d="M673.74,251.74q-8.22,0-8.22-11.54,0-6,2.22-9.13a7.41,7.41,0,0,1,6.45-3.14q8,0,8,11.74,0,5.84-2.19,9A7.22,7.22,0,0,1,673.74,251.74ZM674,231.8q-3.29,0-3.29,8.27,0,7.78,3.23,7.79c2.1,0,3.14-2.68,3.14-8S676,231.8,674,231.8Z" style="fill:#8c9091"/><path d="M701.92,251.34h-6.09l-5.25-8.16h-.06v8.16h-5.08V227h5.08v15.49h.06l4.9-7.59h6l-5.89,7.72Z" style="fill:#8c9091"/><path d="M719.48,249.46a9.3,9.3,0,0,1-2.65,7.09c-1.76,1.68-4.32,2.51-7.67,2.51a12.06,12.06,0,0,1-5.27-.95v-4.27a10,10,0,0,0,5.12,1.48,5.47,5.47,0,0,0,4-1.36,4.83,4.83,0,0,0,1.42-3.68V249h-.07a5.66,5.66,0,0,1-5.12,2.76,6.17,6.17,0,0,1-5-2.21,9,9,0,0,1-1.85-5.95,10,10,0,0,1,2.06-6.63,6.72,6.72,0,0,1,5.41-2.45,5,5,0,0,1,4.49,2.31h.07V234.9h5.07Zm-5-6v-1.3a4,4,0,0,0-.92-2.66,3,3,0,0,0-2.4-1.1,3.09,3.09,0,0,0-2.65,1.32,6.21,6.21,0,0,0-1,3.71,5.23,5.23,0,0,0,.91,3.25,3,3,0,0,0,2.51,1.2,3.11,3.11,0,0,0,2.54-1.22A5,5,0,0,0,714.47,243.44Z" style="fill:#8c9091"/><path d="M557.64,268.49H542.72a5.1,5.1,0,0,1-5.1-5.1V228.77a5.1,5.1,0,0,1,5.1-5.1h23.06a5.1,5.1,0,0,1,5.1,5.1v11.67" style="fill:none;stroke:#b19863;stroke-linecap:round;stroke-miterlimit:10;stroke-width:2px"/><path d="M548,223.43V210.52a2.37,2.37,0,0,1,2.37-2.36h6.84a2.37,2.37,0,0,1,2.37,2.36v12.91" style="fill:none;stroke:#b19863;stroke-linecap:round;stroke-miterlimit:10;stroke-width:2px"/><circle cx="547.32" cy="273.11" r="2.89" style="fill:none;stroke:#b19863;stroke-linecap:round;stroke-miterlimit:10;stroke-width:2px"/><line x1="536.07" y1="277.9" x2="606.32" y2="277.9" style="fill:none;stroke:#b19863;stroke-linecap:round;stroke-miterlimit:10;stroke-width:2px"/><line x1="547.12" y1="227.83" x2="547.12" y2="264.33" style="fill:none;stroke:#b19863;stroke-linecap:round;stroke-miterlimit:10;stroke-width:2px"/><line x1="554.05" y1="227.92" x2="554.05" y2="264.42" style="fill:none;stroke:#b19863;stroke-linecap:round;stroke-miterlimit:10;stroke-width:2px"/><line x1="560.98" y1="228.02" x2="560.98" y2="241.67" style="fill:none;stroke:#b19863;stroke-linecap:round;stroke-miterlimit:10;stroke-width:2px"/><path d="M576.66,240.44V237.8a2.71,2.71,0,0,1,2.71-2.71h5.71a2.71,2.71,0,0,1,2.71,2.71v2.64" style="fill:none;stroke:#5eabc8;stroke-miterlimit:10;stroke-width:2px"/><line x1="564.88" y1="273.56" x2="564.88" y2="276.65" style="fill:none;stroke:#5eabc8;stroke-linecap:round;stroke-linejoin:round;stroke-width:2px"/><line x1="599.09" y1="273.56" x2="599.09" y2="276.65" style="fill:none;stroke:#5eabc8;stroke-linecap:round;stroke-linejoin:round;stroke-width:2px"/><rect x="558.09" y="240.44" width="48.23" height="33.12" rx="6.81" style="fill:none;stroke:#5eabc8;stroke-miterlimit:10;stroke-width:2px"/><line x1="597" y1="240.44" x2="597" y2="273.11" style="fill:none;stroke:#5eabc8;stroke-miterlimit:10;stroke-width:2px"/><line x1="567.25" y1="240.44" x2="567.25" y2="273.56" style="fill:none;stroke:#5eabc8;stroke-miterlimit:10;stroke-width:2px"/><polygon points="585.56 265.39 588.99 260.09 592.14 265.22 585.56 265.39" style="fill:none;stroke:#5eabc8;stroke-linecap:round;stroke-linejoin:round;stroke-width:2px"/><circle cx="589.01" cy="250.38" r="3.46" style="fill:none;stroke:#5eabc8;stroke-linecap:round;stroke-linejoin:round;stroke-width:2px"/><rect x="572.15" y="253.22" width="7.7" height="4.61" transform="translate(-27.08 438.19) rotate(-40.77)" style="fill:none;stroke:#5eabc8;stroke-linecap:round;stroke-linejoin:round;stroke-width:2px"/><path d="M81.22,70c0-18-13-19.73-13-32.66,0,0,.15-6.61,4.42-11C67,36.1,94.24,52,94.24,61.34,94.24,70.4,81.22,70,81.22,70Z" style="fill:url(#radial-gradient)"/><path d="M87.29,20.93c-10.58-.72-14,4.69-14,4.69-5.8,10.27,21.59,26.56,21.59,35.21,0,3-.3,5-2.46,6.31,0,0,12-5.5,12-12.62,0-11.09-21.17-19.44-21.37-27.88C82.94,22.16,87.29,20.93,87.29,20.93Z" style="fill:url(#radial-gradient-2)"/><path d="M125,20.33c-2.94,2.45-7.73,3.46-14.54,3.46s-19.33-2.67-21.68-2.64c-4.68.05-7.2,5.77-3.21,10.12a12,12,0,0,1,3.93-2.9c5.44-1.87,12.65,1,24.47-1.05C121.29,26,123.76,23.16,125,20.33Z" style="fill:url(#linear-gradient)"/><path d="M114.21,27.82A18.85,18.85,0,0,0,121.93,25c-1,2.44-3.52,6.14-9.67,8.34C107.4,35,95.52,32.67,93.64,38.7a72.26,72.26,0,0,1-7.78-7.08,12,12,0,0,1,3.87-2.75c5.44-1.87,12.65,1,24.48-1.05" style="fill:url(#linear-gradient-2)"/><path d="M101.2,46a5.15,5.15,0,0,1,1.51-3.59c2.12-2.13,13.7-3.6,15.86-12.15h0c-1.64,1.88-5.07,3.18-6,3.48-5.23,1.68-12.47.4-16.42,2.71A4.92,4.92,0,0,0,94,39.06,64.81,64.81,0,0,1,101.2,46Z" style="fill:url(#linear-gradient-3)"/><polygon points="123.89 87.73 127.11 79.23 125.17 79.23 121.94 87.73 123.89 87.73" style="fill:#8c734b"/><polygon points="95.11 87.73 98.33 79.23 96.39 79.23 93.16 87.73 95.11 87.73" style="fill:#8c734b"/><polygon points="80.98 87.73 84.2 79.23 82.26 79.23 79.03 87.73 80.98 87.73" style="fill:#8c734b"/><path d="M122,79.23l-2.5,6.63H118l.27-.71c.3-.82-.11-1.48-.93-1.48H111.9a2,2,0,0,0-1,.3l1.78-4.74h-1.94l-2.5,6.63H107l.86-2.28h-1.94L105,85.86h-4.77l.59-1.58H98.62l-1.36,3.63H95.42a1.51,1.51,0,0,0,.17,1.38,1.68,1.68,0,0,0,1.38.5,2.54,2.54,0,0,0,1.57-.48,2.77,2.77,0,0,0,1-1.39l.06-.18h21.21v0l3.17-8.45ZM116,86h-5.84c.14-.37.33-.67.7-.67h4.72A.45.45,0,0,1,116,86Z" style="fill:#8c734b"/><path d="M87.64,86.05a3,3,0,0,0-2,1.85,1.49,1.49,0,0,0,.18,1.38,2.73,2.73,0,0,0,1.75.71,5.87,5.87,0,0,0,3-.69,3.09,3.09,0,0,0,1.25-1.39l.06-.18.71-1.87.59-1.58H91l-1.3,3.45H87Z" style="fill:#8c734b"/><path d="M81.08,79.23h-2l-2.52,6.63H72l.08-.21a1,1,0,0,1,.82-.6h2.32L76,83.17c-.39,0-.42.21-.83.21H71.69a1.31,1.31,0,0,0-1.11.74l-.66,1.74h-2.4a1.49,1.49,0,0,0-1.66-1.5A3.88,3.88,0,0,0,63,85.86H60.27l2.52-6.63H60.85l-3.23,8.5H62.4A1.51,1.51,0,0,0,64.05,89a3.77,3.77,0,0,0,2.62-1.24H77.85Zm-15.46,7.4a1.09,1.09,0,0,1-.94.65.43.43,0,0,1-.42-.65,1.1,1.1,0,0,1,.93-.66A.45.45,0,0,1,65.62,86.63Z" style="fill:#8c734b"/><path d="M56.06,84.24,55.34,86H52.19l-.17.18.36-1h0l1-2.57c-.18,0-.75.71-1.57.71H48.35a1.33,1.33,0,0,0-1.11.74l-.06.16h0l-.34.91-.49,1.3h0l-.47,1.24H43.16l.63-1.68a3,3,0,0,0-1.95,1.85A1.51,1.51,0,0,0,42,89.28a2.76,2.76,0,0,0,1.76.71,5.82,5.82,0,0,0,3-.69,3.11,3.11,0,0,0,1.26-1.39l.06-.18.71-1.87.23-.62h1.38l-.94,2.49h1.95l0,0H56a.84.84,0,0,0,.43-.14.68.68,0,0,0,.29-.34l1.11-3Z" style="fill:#8c734b"/><path d="M56.43,82.67a.77.77,0,0,0,.78.91,1.1,1.1,0,0,0,1-.91.78.78,0,0,0-.78-.92A1.09,1.09,0,0,0,56.43,82.67Z" style="fill:#8c734b"/><path d="M44.08,91.14a.68.68,0,0,0,.69.82,1,1,0,0,0,.93-.82.68.68,0,0,0-.69-.81A1,1,0,0,0,44.08,91.14Z" style="fill:#8c734b"/><path d="M42,91.14a.68.68,0,0,0,.69.82,1,1,0,0,0,.93-.82.68.68,0,0,0-.69-.81A1,1,0,0,0,42,91.14Z" style="fill:#8c734b"/><path d="M104.06,89.32a.69.69,0,0,0,.7.81,1,1,0,0,0,.93-.81.68.68,0,0,0-.69-.81A1,1,0,0,0,104.06,89.32Z" style="fill:#8c734b"/><path d="M101.93,89.32a.69.69,0,0,0,.7.81,1,1,0,0,0,.93-.81.68.68,0,0,0-.69-.81A1,1,0,0,0,101.93,89.32Z" style="fill:#8c734b"/><path d="M88.23,84a.77.77,0,0,0,.78.91,1.08,1.08,0,0,0,1-.91.77.77,0,0,0-.78-.91A1.11,1.11,0,0,0,88.23,84Z" style="fill:#8c734b"/><path d="M71.87,80.89a1.09,1.09,0,0,0-1.05.91,1.41,1.41,0,0,0,0,.2h0c0,.15-1,.2-1,.2l-.26.74s1.29-.12,2.16-.24l.11,0h0a1.11,1.11,0,0,0,.85-.89A.77.77,0,0,0,71.87,80.89Zm.14.92a.36.36,0,0,1-.35.31.26.26,0,0,1-.27-.31.38.38,0,0,1,.36-.31A.26.26,0,0,1,72,81.81Z" style="fill:#8c734b"/><path d="M42,102.81l.78-2.51c.86-2.73,3.23-3.25,6.33-3.25s5.15.52,4.29,3.25l-.78,2.51c-.86,2.72-3.22,3.24-6.33,3.24S41.09,105.53,42,102.81Zm7.55-.26.62-2c.42-1.31-.11-1.44-1.7-1.44s-2.15.13-2.61,1.44l-.63,2c-.37,1.32.11,1.45,1.7,1.45S49.08,103.87,49.5,102.55Z" style="fill:#8c9091"/><path d="M56.07,106H53l2.78-8.85h4.85l.44,5.56h.11L65,97.13h5L67.21,106H64.15l2.44-6.79h-.11l-5,6.79H58.79L58,99.19H57.9Z" style="fill:#8c9091"/><path d="M72.35,104.46l-1,1.52H68.12l6.22-8.85H79L79.7,106H76.58l-.12-1.52Zm3.82-5.56h0l-2.59,3.83h2.84Z" style="fill:#8c9091"/><path d="M83.56,106H80.5l2.78-8.85h5.18l1.15,6.8h.12l2-6.8h3.07L92,106H86.75l-1.11-6.8h-.13Z" style="fill:#8c9091"/><path d="M102,104.46l-1,1.52H97.76L104,97.13h4.65l.71,8.85h-3.12l-.12-1.52Zm3.82-5.56h0l-2.6,3.83H106Z" style="fill:#8c9091"/><path d="M113.17,106H110.1l2.78-8.85H116Z" style="fill:#8c9091"/><path d="M117.77,97.13h5.9c2.64,0,3.8.47,3.11,2.67-.46,1.48-.73,2.34-3,2.73l0,.1c1.25,0,1.89.56,1.58,1.57l-.57,1.78h-3.06l.4-1.24c.23-.66,0-1.11-.91-1.11h-2.37l-.74,2.35H115Zm4,4.45c1.32,0,1.39-.38,1.71-1.38.24-.8.06-1-1-1h-2.38l-.75,2.4Z" style="fill:#8c9091"/></svg>